<svg xmlns="http://www.w3.org/2000/svg" width="28" height="28" viewBox="0 0 28 28">
    <defs>
        <style>
            .cls-2{fill:#3c3b5c}
        </style>
    </defs>
    <g id="AC_Service" transform="translate(-448 -193)">
        <g id="ac-repair-icon" transform="translate(-48.959 3.359)">
            <path id="Rectangle_15455" fill="#d4e1f4" d="M499.779 192.741H522a1.872 1.872 0 0 1 1.709 2v9H498.07v-9a1.872 1.872 0 0 1 1.709-2z"/>
            <g id="Group_13923" transform="translate(-.001)">
                <path id="Path_11991" d="M524.383 202.884v-7.974a2.148 2.148 0 0 0-1.963-2.269h-22.488a2.146 2.146 0 0 0-1.965 2.263v8.744a3.952 3.952 0 0 0 3.62 4.17h19.19a3.943 3.943 0 0 0 3.61-4.159v-.774zm-.948 0h-24.513V194.9a1.126 1.126 0 0 1 1.017-1.194H522.4a1.129 1.129 0 0 1 1.031 1.2zm-22.389 3.771c-.074-.021-.143-.055-.215-.082a2.763 2.763 0 0 1-.3-.119c-.069-.034-.131-.078-.2-.118-.089-.054-.179-.107-.262-.169-.063-.049-.12-.1-.179-.159a2.909 2.909 0 0 1-.213-.2c-.059-.065-.11-.136-.163-.2a2.08 2.08 0 0 1-.153-.216 2.824 2.824 0 0 1-.143-.266c-.032-.065-.063-.13-.09-.2a2.857 2.857 0 0 1-.11-.343c-.013-.049-.025-.1-.036-.149a2.831 2.831 0 0 1-.053-.433v-.043h24.492v.051a2.71 2.71 0 0 1-.052.426c-.01.05-.023.1-.035.147a3.032 3.032 0 0 1-.111.347c-.026.066-.057.128-.088.191a2.958 2.958 0 0 1-.145.272c-.046.074-.1.142-.15.211a2.46 2.46 0 0 1-.166.209 2.552 2.552 0 0 1-.212.2c-.073.063-.115.109-.178.157a2.776 2.776 0 0 1-.267.173c-.063.038-.123.081-.19.115a2.785 2.785 0 0 1-.31.124c-.068.025-.132.057-.2.076a2.988 2.988 0 0 1-.334.061c-.071.011-.139.031-.212.037H501.6c-.081-.006-.156-.028-.235-.04-.11-.021-.218-.032-.319-.06z" class="cls-2"/>
                <path id="Path_11992" d="M502.594 205.885h17.769a.555.555 0 0 0 0-1.066h-17.781a.455.455 0 0 0-.307.207.593.593 0 0 0-.086.4.505.505 0 0 0 .4.459z" class="cls-2"/>
            </g>
            <g id="Group_13887" transform="translate(-2.486)">
                <path id="Path_11933" d="M513.752 208.922a.388.388 0 0 0-.388.388v4.1l-.889-.889a.388.388 0 0 0-.548.548l1.551 1.551a.388.388 0 0 0 .548 0l1.551-1.551a.388.388 0 0 0-.548-.548l-.889.889v-4.1a.388.388 0 0 0-.388-.388z" class="cls-2"/>
                <path id="Path_11934" d="M518.385 209.19a.389.389 0 0 0-.737.246 4.942 4.942 0 0 0 2.423 2.79l-1.062.473a.388.388 0 1 0 .287.721l.029-.013 2-.892a.389.389 0 0 0 .2-.511l-.892-2a.388.388 0 1 0-.725.277l.017.038.552 1.24a4.159 4.159 0 0 1-2.092-2.369z" class="cls-2"/>
                <path id="Path_11935" d="M507.382 209.8a.389.389 0 0 0-.512.2l-.892 2a.389.389 0 0 0 .2.512l2 .892a.388.388 0 0 0 .352-.692l-.037-.016-1.062-.473a4.938 4.938 0 0 0 2.424-2.79.388.388 0 0 0-.737-.245 4.123 4.123 0 0 1-2.094 2.365l.552-1.241a.388.388 0 0 0-.194-.512z" class="cls-2"/>
            </g>
        </g>
        <path id="Rectangle_91" fill="none" d="M0 0h28v28H0z" transform="translate(448 193)"/>
    </g>
</svg>
