<svg xmlns="http://www.w3.org/2000/svg" width="28" height="28" viewBox="0 0 28 28">
    <defs>
        <style>
            .cls-1{fill:none}
        </style>
    </defs>
    <g id="Astrologers" transform="translate(-102 -285)">
        <path id="Rectangle_6234" d="M0 0h28v28H0z" class="cls-1" transform="translate(102 285)"/>
        <g id="Group_13184" transform="translate(102 285)">
            <g id="daily-needs-icn">
                <path id="Rectangle_91" d="M0 0h28v28H0z" class="cls-1"/>
            </g>
            <path id="Rectangle_27" d="M0 0h28v28H0z" class="cls-1"/>
        </g>
        <g id="Group_13605" transform="translate(72.304 -231.049)">
            <circle id="Ellipse_322" cx="9.104" cy="9.104" r="9.104" fill="#00f6ff" transform="translate(34.56 520.868)"/>
            <path id="Path_5693" fill="#cbff6f" d="M63.293 545.471l1.267 3.839-3.359 2.6-3.319-2.6 1.024-3.839z" transform="translate(-17.506 -18.4)"/>
            <path id="Path_5694" fill="#333a60" d="M33.7 530.674v-1.25c.03-.244.055-.488.09-.732a10.029 10.029 0 0 1 8.187-8.489c.364-.064.731-.1 1.1-.154h1.25c.341.044.683.077 1.021.135a10.036 10.036 0 0 1 8.2 8.142c.065.364.1.732.154 1.1v1.25c-.029.238-.055.476-.088.713a10.032 10.032 0 0 1-8.17 8.506c-.37.067-.744.1-1.116.156h-1.25a1.089 1.089 0 0 0-.15-.033 9.732 9.732 0 0 1-5.4-2.114 9.84 9.84 0 0 1-3.676-6.15c-.07-.354-.107-.72-.152-1.08zm10.824-9.4c.563 1.733 1.121 3.449 1.675 5.168.039.121.116.116.21.116h5.212c.054 0 .108-.009.168-.015a8.793 8.793 0 0 0-7.269-5.271zm-8.905 5.272c.044 0 .069.01.095.01h5.309c.135 0 .159-.07.191-.169q.518-1.6 1.041-3.206l.62-1.908a8.751 8.751 0 0 0-7.26 5.271zm12.561 11.092c-.031-.027-.057-.055-.088-.077q-2.139-1.555-4.276-3.112c-.109-.079-.17-.039-.252.021l-4.214 3.065c-.045.033-.087.07-.135.108a8.751 8.751 0 0 0 8.961-.007zm-13.093-9.524a8.759 8.759 0 0 0 .458 5.312 8.645 8.645 0 0 0 2.319 3.237c.023-.049.037-.071.045-.1l1.641-5.042c.039-.118 0-.171-.089-.236q-1.322-.954-2.638-1.915zm14.443 8.563a8.833 8.833 0 0 0 2.7-4.377 8.659 8.659 0 0 0 .078-4.173c-.05.03-.079.045-.1.063q-2.146 1.558-4.294 3.114c-.11.08-.082.152-.051.248q.508 1.555 1.011 3.112c.21.659.426 1.319.652 2.011zm-5.83-8.95h-1.522c-.12 0-.185.025-.225.152q-.464 1.457-.945 2.909a.178.178 0 0 0 .075.24q1.244.893 2.478 1.8a.19.19 0 0 0 .269 0q1.226-.9 2.461-1.79a.189.189 0 0 0 .085-.254q-.476-1.444-.938-2.891a.2.2 0 0 0-.236-.166c-.502.005-1.002 0-1.502 0zm.017-5.122h-.047l-1.28 3.938H45zm-4.442 13.525l3.422-2.486-2.114-1.536zm7.53-4.022l-2.114 1.536 3.35 2.433.041-.034zm4.013-4.365h-4.2l.8 2.467zm-10.051 0h-4.2l3.395 2.466z"/>
        </g>
    </g>
</svg>
