<svg xmlns="http://www.w3.org/2000/svg" id="Dentists" width="28" height="28" viewBox="0 0 28 28">
    <defs>
        <style>
            .cls-3{fill:#d4e1f4}.cls-4{fill:#333a60}
        </style>
    </defs>
    <path id="Rectangle_91" fill="none" d="M0 0h28v28H0z"/>
    <g id="Group_13640" transform="translate(-402.663 -667.742)">
        <circle id="Ellipse_326" cx="5.157" cy="5.157" r="5.157" fill="#0bcdff" transform="translate(417.179 672.855)"/>
        <path id="Path_5884" d="M414.756 693.1c-1.368-1.394-1.646-6.347-1.594-9.054a9.632 9.632 0 0 0-1.1-3.4 10.057 10.057 0 0 1-1.071-3.219 4.82 4.82 0 0 1 .792-2.78 4.076 4.076 0 0 0-2.621 4.152 10.066 10.066 0 0 0 1.071 3.219 9.632 9.632 0 0 1 1.1 3.4c-.051 2.707.227 7.659 1.594 9.054a1.017 1.017 0 0 0 .742.348c.033 0 .337-.037.928-1.332.055-.121.11-.248.166-.379z" class="cls-3" transform="translate(-2.292 -3.127)"/>
        <path id="Path_5885" d="M455.205 723.114c-.339-.757-.695-1.743-1.071-2.786-1.144-3.175-1.91-5.1-2.893-5.1-.479 0-.885.538-1.334 1.541.766.535 1.453 2.308 2.4 4.934.376 1.044.731 2.03 1.071 2.786.479 1.069.713 1.176.747 1.186.565 0 1.047-.65 1.417-1.885-.096-.17-.207-.39-.337-.676z" class="cls-3" transform="translate(-33.392 -34.108)"/>
        <path id="Path_5886" d="M425.3 672.829a4.394 4.394 0 0 0-4.048-2.283 10.4 10.4 0 0 0-2.727.629 5.434 5.434 0 0 1-4.916 0 10.363 10.363 0 0 0-2.725-.63 4.5 4.5 0 0 0-3.429 1.443 5.349 5.349 0 0 0-1.292 3.679 10.366 10.366 0 0 0 1.138 3.529 9.561 9.561 0 0 1 1.029 3.08 37.3 37.3 0 0 0 .239 4.9c.291 2.353.82 3.936 1.573 4.7a1.76 1.76 0 0 0 1.283.575c1.051 0 1.744-1.846 2.879-5.113.383-1.1.745-2.142 1.1-2.937a2.977 2.977 0 0 1 .683-1.145c.071.03.363.213.875 1.3.429.909.867 2.125 1.29 3.3 1.089 3.021 1.651 4.473 2.527 4.473 1.173 0 1.977-1.217 2.459-3.722a42.465 42.465 0 0 0 .55-5.612l.012-.228a.438.438 0 1 0-.875-.045l-.012.239a41.732 41.732 0 0 1-.536 5.48c-.368 1.911-.923 2.978-1.567 3.01-.052-.035-.266-.224-.665-1.115-.338-.752-.692-1.736-1.067-2.778-1.157-3.213-1.922-5.181-3-5.181-.924 0-1.524 1.6-2.594 4.683-.4 1.164-.823 2.367-1.228 3.255-.544 1.193-.826 1.263-.821 1.263a.906.906 0 0 1-.658-.312c-1.34-1.365-1.611-6.28-1.561-8.968a9.679 9.679 0 0 0-1.105-3.455 10.018 10.018 0 0 1-1.061-3.171c0-2.539 1.545-4.245 3.844-4.245a10.186 10.186 0 0 1 2.462.59 6.209 6.209 0 0 0 5.447 0 10.182 10.182 0 0 1 2.459-.587 3.509 3.509 0 0 1 3.28 1.828.438.438 0 0 0 .768-.422z" class="cls-4"/>
        <path id="Path_5887" d="M457.4 676.851a5.6 5.6 0 1 0 5.6 5.6 5.565 5.565 0 0 0-5.6-5.6zm4.723 5.6a4.737 4.737 0 0 1-4.724 4.724 4.724 4.724 0 1 1 4.724-4.724z" class="cls-4" transform="translate(-34.837 -4.816)"/>
        <path id="Path_5888" fill="#fff" d="M276.985 364.172h-1.494v-1.494a.324.324 0 0 0-.323-.323H274.1a.324.324 0 0 0-.323.323v1.494h-1.494a.324.324 0 0 0-.324.323v1.069a.324.324 0 0 0 .324.323h1.494v1.494a.324.324 0 0 0 .323.324h1.069a.324.324 0 0 0 .323-.324v-1.494h1.494a.324.324 0 0 0 .324-.323V364.5a.324.324 0 0 0-.325-.328z" transform="translate(147.88 312.722)"/>
    </g>
</svg>
