<svg xmlns="http://www.w3.org/2000/svg" id="Dermatologists" width="28" height="28" viewBox="0 0 28 28">
    <defs>
        <style>
            .cls-4,.cls-6{fill-rule:evenodd}.cls-4{fill:#fe93d3}.cls-6{fill:#fe72c5}
        </style>
    </defs>
    <path id="Rectangle_91" fill="none" d="M0 0h28v28H0z"/>
    <g id="skin-problem" transform="translate(-21.067 2)">
        <g id="Group_14940" transform="translate(25.302 7.973)">
            <path id="Path_13490" fill="#ffeee6" fill-rule="evenodd" d="M47.673 176.8a8.85 8.85 0 0 0 .93 4.725 9.278 9.278 0 0 0 2.974 3.193 4.311 4.311 0 0 0 5.577.021 9.307 9.307 0 0 0 3.006-3.214 8.308 8.308 0 0 0 .679-1.754 11.668 11.668 0 0 0 .251-2.971c.279-3.25-3.057-6.151-5.3-6.587a7.393 7.393 0 0 0-2.772-.007c-2.26.427-5.415 3.343-5.34 6.593z" transform="translate(-47.671 -170.082)"/>
        </g>
        <g id="Group_14941" transform="translate(29.51 10.077)">
            <path id="Path_13491" fill="#ffdfcf" fill-rule="evenodd" d="M139.281 215.541a7.073 7.073 0 0 1 5.3 4.482 8.842 8.842 0 0 1-.93 4.725 9.418 9.418 0 0 1-4.025 3.8 2.255 2.255 0 0 0 .314.005 4.99 4.99 0 0 0 2.772-1.012 9.307 9.307 0 0 0 3.006-3.214 8.308 8.308 0 0 0 .679-1.754 11.668 11.668 0 0 0 .251-2.971 7.071 7.071 0 0 0-5.3-4.482 7.338 7.338 0 0 0-3.905.3 7.356 7.356 0 0 1 1.839.121z" transform="translate(-137.442 -214.982)"/>
        </g>
        <g id="Group_14942" transform="translate(25.228 .363)">
            <path id="Path_13492" d="M52.043 7.744c-3.075.182-6.473 2.6-5.873 7.6 1.79-2.083 7.584-4.469 10.416-4.459-.141-1.937-1.819-3.016-3.793-3.136z" class="cls-4" transform="translate(-46.1 -7.744)"/>
        </g>
        <g id="Group_14943" transform="translate(33.415 6.312)">
            <path id="Path_13493" fill="#fe4eb7" fill-rule="evenodd" d="M224.659 134.854c-2.61-.941-3.5 1.67-3.909 3.7a7.07 7.07 0 0 1 5.3 4.482c1.822-2.925 1.55-6.292-1.391-8.182z" transform="translate(-220.75 -134.656)"/>
        </g>
        <g id="Group_14944" transform="translate(25.228 1.823)">
            <path id="Path_13494" d="M46.167 45.019a9.045 9.045 0 0 1 8.688-4.955 3.638 3.638 0 0 1 .915.137 3.247 3.247 0 0 1 .812.359 3.071 3.071 0 0 0-.465-1.443 4.184 4.184 0 0 0-1.31-.23 10.6 10.6 0 0 0-8.57 3.515 8.348 8.348 0 0 0-.07 2.617z" class="cls-6" transform="translate(-46.098 -38.883)"/>
        </g>
        <g id="Group_14945" transform="translate(24.554 3)">
            <path id="Path_13495" d="M41.155 64a9.045 9.045 0 0 0-8.688 4.955 7.97 7.97 0 0 0 .005 6.735 7.14 7.14 0 0 1 8.112-4.482c2.249.344 3.9-1.29 3.909-3.7a3.541 3.541 0 0 0-1.61-3.011A3.4 3.4 0 0 0 41.155 64z" class="cls-4" transform="translate(-31.723 -63.999)"/>
        </g>
        <g id="Group_14946" transform="translate(24.604 3.92)">
            <path id="Path_13496" d="M33.489 94.4a7.072 7.072 0 0 1 5.34-4.489 7.393 7.393 0 0 1 2.772.007c2.249.344 3.9-1.29 3.909-3.7a3.637 3.637 0 0 0-1.07-2.59 3.809 3.809 0 0 1 .076.739c-.012 2.412-1.66 4.046-3.909 3.7a7.135 7.135 0 0 0-7.817 3.818 8.394 8.394 0 0 0 .699 2.515z" class="cls-6" transform="translate(-32.79 -83.628)"/>
        </g>
        <g id="Group_14947" transform="translate(31.101 14.287)">
            <path id="Path_13497" fill="#9dc6fb" fill-rule="evenodd" d="M174.756 304.841a3.954 3.954 0 0 0 .935 7.849c.08-.007.159-.016.241-.028a3.954 3.954 0 1 0-1.176-7.821z" transform="translate(-171.388 -304.796)"/>
        </g>
        <g id="Group_14948" transform="translate(40.112 19.387)">
            <path id="Path_13498" fill="#ffe07d" fill-rule="evenodd" d="M364 414.676l-.351.889a.3.3 0 0 0 .167.385l1.112.438.919-2.332-1.112-.438a.3.3 0 0 0-.385.167z" transform="translate(-363.629 -413.598)"/>
        </g>
        <g id="Group_14949" transform="translate(41.412 19.846)">
            <path id="Path_13499" fill="#d09080" fill-rule="evenodd" d="M392.282 423.39l-.919 2.332 2.457.967a1.253 1.253 0 1 0 .918-2.332z" transform="translate(-391.363 -423.39)"/>
        </g>
        <g id="Group_14950" transform="translate(33.868 14.287)">
            <path id="Path_13500" fill="#80b4fb" fill-rule="evenodd" d="M231.348 305.191a3.95 3.95 0 0 1 2.263 2.078 3.955 3.955 0 0 1-2.409 5.417 3.931 3.931 0 0 0 .751 0c.08-.007.159-.016.241-.028a3.954 3.954 0 1 0-1.176-7.821 4.025 4.025 0 0 0-.6.137 3.906 3.906 0 0 1 .93.217z" transform="translate(-230.417 -304.797)"/>
        </g>
        <path id="Path_13501" fill="#ffd064" fill-rule="evenodd" d="M363.817 445.331l1.112.438.315-.8-1.388-.546-.206.522a.3.3 0 0 0 .167.386z" transform="translate(-323.517 -423.591)"/>
        <path id="Path_13502" fill="#ce775f" fill-rule="evenodd" d="M391.363 447.768l2.457.967a1.253 1.253 0 0 0 1.144-2.215 1.25 1.25 0 0 1-1.707 1.07l-1.579-.622z" transform="translate(-349.951 -425.589)"/>
        <path id="Path_13503" fill="#333a60" d="M44.916 20.487l-3.568-1.406a.65.65 0 0 0-.84.366l-.222.563-1.13-.445a4.285 4.285 0 0 0 .159-1.963 4.329 4.329 0 0 0-.3-1.063c.05-.541.057-1.095.058-1.747a7.1 7.1 0 0 0 1.083-4.63 5.541 5.541 0 0 0-2.486-3.845 3.985 3.985 0 0 0-.97-2.442 3.613 3.613 0 0 0-.65-.578A3.458 3.458 0 0 0 34.27.671 5.45 5.45 0 0 0 31.548 0h-.022a6.969 6.969 0 0 0-3 .7.352.352 0 0 0 .307.632 5.688 5.688 0 0 1 5.09-.051 2.8 2.8 0 0 1 1.326 1.6 3.918 3.918 0 0 0-1.25-.23 10.415 10.415 0 0 0-5 1.077 8.9 8.9 0 0 0-3.411 3.007 5.853 5.853 0 0 1 2-4.6c.08-.068.481-.374.775-.567.158-.07.681-.34.681-.34l-.373-.599s-.516.257-.793.439-.674.474-.751.54a6.2 6.2 0 0 0-1.8 2.586 8.038 8.038 0 0 0-.389 3.706c-.046.1-.22.509-.248.611a8.2 8.2 0 0 0-.458 2.08 8.442 8.442 0 0 0 .72 4.174 12 12 0 0 0 1.39 5.467.352.352 0 0 0 .627-.318 11.26 11.26 0 0 1-1.314-5.155 6.83 6.83 0 0 1 12.712 0c0 .254 0 .493-.006.721a4.335 4.335 0 0 0-.747-.7 4.306 4.306 0 1 0-3.258 7.713 4.37 4.37 0 0 1-2.326.8h-.038c-1.22.066-3.664-1.769-5.028-3.4a.352.352 0 1 0-.539.451C27.709 21.881 30.251 24 31.892 24h.12a5.915 5.915 0 0 0 3.528-1.476q.078-.009.157-.021a4.279 4.279 0 0 0 2.824-1.7 4.362 4.362 0 0 0 .364-.586l1.143.45-.222.562a.65.65 0 0 0 .366.841l1.106.436H41.291l2.45.965a1.6 1.6 0 1 0 1.176-2.986zM33.468 9.864a7.742 7.742 0 0 0-1.454-.138 7.55 7.55 0 0 0-4.129 1.211 7.444 7.444 0 0 0-2.557 2.856 7.537 7.537 0 0 1 0-4.984 8.193 8.193 0 0 1 7.738-1.559.352.352 0 1 0 .236-.662 8.544 8.544 0 0 0-4.6-.213 8.859 8.859 0 0 0-2.73 1.064c.063-.106.128-.211.2-.314a8.939 8.939 0 0 1 7.809-3.769 3.057 3.057 0 0 1 1.519.424.352.352 0 0 0 .054.034 3.208 3.208 0 0 1 1.415 2.7 3.535 3.535 0 0 1-1.127 2.739 2.877 2.877 0 0 1-2.374.611zm4.925 9.742l-.014.031v.006a3.625 3.625 0 0 1-.422.74 3.6 3.6 0 1 1-3.434-5.7 3.654 3.654 0 0 1 .545-.041 3.607 3.607 0 0 1 3.327 4.967zm.365-5.694a7.366 7.366 0 0 0-3.566-3.5 3.383 3.383 0 0 0 1.108-.629 4.036 4.036 0 0 0 1.331-2.618c2 1.6 2.43 4.194 1.124 6.747zm2.457 7.81l-.734-.289.662-1.678.734.289zm3.953.589a.9.9 0 0 1-1.168.508l-2.129-.839.659-1.68 2.128.839a.9.9 0 0 1 .509 1.172z"/>
    </g>
</svg>
