<svg xmlns="http://www.w3.org/2000/svg" width="28" height="28" viewBox="0 0 28 28">
  <defs>
    <style>
      .cls-1 {
        fill: none;
      }

      .cls-2 {
        fill: #fcd770;
      }

      .cls-3 {
        fill: #e6e9ed;
      }

      .cls-4 {
        fill: #ccd1d9;
      }

      .cls-5 {
        fill: #aab2bd;
      }

      .cls-6 {
        fill: #d3a06c;
      }

      .cls-7 {
        fill: #dfb28b;
      }

      .cls-8 {
        fill: #f0d0b4;
      }

      .cls-9 {
        fill: #656d78;
      }

      .cls-10 {
        fill: #ff826e;
      }

      .cls-11 {
        fill: #fc6e51;
      }

      .cls-12 {
        fill: #3c3b5c;
      }
    </style>
  </defs>
  <g id="Construction_Real_Estate" data-name="Construction &amp; Real Estate" transform="translate(-53 -276)">
    <g id="Group_131102" data-name="Group 131102" transform="translate(0 79)">
      <g id="Group_131099" data-name="Group 131099" transform="translate(-7915 110)">
        <g id="Apparel" transform="translate(3 244)">
          <rect id="Rectangle_71413" data-name="Rectangle 71413" class="cls-1" width="28" height="28" transform="translate(7965 -157)"/>
        </g>
      </g>
    </g>
    <g id="architect" transform="translate(55 277.881)">
      <g id="Group_131127" data-name="Group 131127" transform="translate(1.359 1.359)">
        <g id="Group_131103" data-name="Group 131103" transform="translate(10.043 17.894)">
          <path id="Path_40795" data-name="Path 40795" class="cls-2" d="M32.152,52.647v2.869H30V51.89a2.564,2.564,0,0,0,1.822.757Z" transform="translate(-30 -51.89)"/>
        </g>
        <g id="Group_131104" data-name="Group 131104" transform="translate(7.532 10.402)">
          <path id="Path_40796" data-name="Path 40796" class="cls-2" d="M26.228,37.1H24.793a2.554,2.554,0,0,0,.717,1.4v3.626H23V40.684h.359a.723.723,0,0,0,.717-.717.719.719,0,0,0-.717-.717H23V31a6.013,6.013,0,0,1,3.945,3.013V37.1Z" transform="translate(-23 -31)"/>
        </g>
        <g id="Group_131105" data-name="Group 131105" transform="translate(2.152 19.785)">
          <path id="Path_40797" data-name="Path 40797" class="cls-2" d="M10.511,57.461V58.9H8V57.16a3.544,3.544,0,0,0,1.435.3Z" transform="translate(-8 -57.16)"/>
        </g>
        <g id="Group_131106" data-name="Group 131106" transform="translate(0 10.402)">
          <path id="Path_40798" data-name="Path 40798" class="cls-2" d="M7.38,39.25v1.435H5.587a3.544,3.544,0,0,1-1.435-.3A3.584,3.584,0,0,1,2,37.1v-.237A6.016,6.016,0,0,1,6.663,31v8.088Z" transform="translate(-2 -31)"/>
        </g>
        <g id="Group_131107" data-name="Group 131107" transform="translate(4.663 20.086)">
          <path id="Path_40799" data-name="Path 40799" class="cls-3" d="M15.717,58h2.152v1.435H15V58Z" transform="translate(-15 -58)"/>
        </g>
        <g id="Group_131108" data-name="Group 131108" transform="translate(4.663 12.554)">
          <path id="Path_40800" data-name="Path 40800" class="cls-3" d="M17.869,38.793v4.3a.719.719,0,0,0-.717-.717h-.42a.72.72,0,0,0-.509.212l-.506.506L15,42.936V38.793L16.435,37Z" transform="translate(-15 -37)"/>
        </g>
        <g id="Group_131109" data-name="Group 131109" transform="translate(6.098 10.402)">
          <path id="Path_40801" data-name="Path 40801" class="cls-4" d="M20.435,31v3.945L19,33.152Z" transform="translate(-19 -31)"/>
        </g>
        <g id="Group_131110" data-name="Group 131110" transform="translate(4.663 10.402)">
          <path id="Path_40802" data-name="Path 40802" class="cls-4" d="M15,31l1.435,2.152L15,34.945Z" transform="translate(-15 -31)"/>
        </g>
        <g id="Group_131111" data-name="Group 131111" transform="translate(9.326 16.499)">
          <path id="Path_40803" data-name="Path 40803" class="cls-5" d="M38.76,48H40.2a2.573,2.573,0,0,1-2.539,2.152H35.532a.723.723,0,0,0-.717-.717H33.38a.719.719,0,0,0-.717.717H30.539A2.577,2.577,0,0,1,28,48H38.76Z" transform="translate(-28 -48)"/>
        </g>
        <g id="Group_131112" data-name="Group 131112" transform="translate(15.782 12.195)">
          <path id="Path_40804" data-name="Path 40804" class="cls-6" d="M49.587,36v4.3H46V36h3.587Z" transform="translate(-46 -36)"/>
        </g>
        <g id="Group_131113" data-name="Group 131113" transform="translate(12.912 6.456)">
          <path id="Path_40805" data-name="Path 40805" class="cls-7" d="M43.739,20v5.739H40.869V24.3H38V20h5.739Z" transform="translate(-38 -20)"/>
        </g>
        <g id="Group_131114" data-name="Group 131114" transform="translate(11.478 10.76)">
          <path id="Path_40806" data-name="Path 40806" class="cls-3" d="M35.435,32H38.3v5.739H34V32Z" transform="translate(-34 -32)"/>
        </g>
        <g id="Group_131115" data-name="Group 131115" transform="translate(13.988 17.934)">
          <path id="Path_40807" data-name="Path 40807" class="cls-8" d="M43.658,52.212a.7.7,0,0,1,.212.506,1.435,1.435,0,1,1-2.869,0A.719.719,0,0,1,41.717,52h1.435A.7.7,0,0,1,43.658,52.212Z" transform="translate(-41 -52)"/>
        </g>
        <g id="Group_131116" data-name="Group 131116" transform="translate(5.38 17.934)">
          <path id="Path_40808" data-name="Path 40808" class="cls-8" d="M19.511,52.717a.719.719,0,0,1,.717.717.723.723,0,0,1-.717.717H17V52.717l.506-.506A.72.72,0,0,1,18.015,52h.42a.719.719,0,0,1,.717.717Z" transform="translate(-17 -52)"/>
        </g>
        <g id="Group_131117" data-name="Group 131117" transform="translate(8.562 6.098)">
          <path id="Path_40809" data-name="Path 40809" class="cls-8" d="M27.036,19.316a1.075,1.075,0,0,1-.76,1.836H25.87a1.312,1.312,0,0,0,.047-.359V19h.359A1.073,1.073,0,0,1,27.036,19.316Z" transform="translate(-25.87 -19)"/>
        </g>
        <g id="Group_131118" data-name="Group 131118" transform="translate(4.663 9.326)">
          <path id="Path_40810" data-name="Path 40810" class="cls-8" d="M17.511,28l.359,1.076-1.435,2.152L15,29.076,15.359,28Z" transform="translate(-15 -28)"/>
        </g>
        <g id="Group_131119" data-name="Group 131119" transform="translate(3.587 5.021)">
          <path id="Path_40811" data-name="Path 40811" class="cls-8" d="M17.021,17.076v1.793a1.312,1.312,0,0,1-.047.359A1.432,1.432,0,0,1,15.587,20.3H13.435a1.432,1.432,0,0,1-1.388-1.076A1.312,1.312,0,0,1,12,18.869V16h5.021Z" transform="translate(-12 -16)"/>
        </g>
        <g id="Group_131120" data-name="Group 131120" transform="translate(2.152 6.098)">
          <path id="Path_40812" data-name="Path 40812" class="cls-8" d="M9.481,21.152H9.076a1.076,1.076,0,1,1,0-2.152h.359v1.793A1.312,1.312,0,0,0,9.481,21.152Z" transform="translate(-8 -19)"/>
        </g>
        <g id="Group_131121" data-name="Group 131121" transform="translate(8.608 5.021)">
          <path id="Path_40813" data-name="Path 40813" class="cls-9" d="M27.435,16v2.152a1.078,1.078,0,0,0-1.076-1.076H26V16Z" transform="translate(-26 -16)"/>
        </g>
        <g id="Group_131122" data-name="Group 131122" transform="translate(2.152 5.021)">
          <path id="Path_40814" data-name="Path 40814" class="cls-9" d="M9.076,17.076A1.075,1.075,0,0,0,8,18.152V16H9.435v1.076Z" transform="translate(-8 -16)"/>
        </g>
        <g id="Group_131123" data-name="Group 131123" transform="translate(6.815 0.065)">
          <path id="Path_40815" data-name="Path 40815" class="cls-10" d="M24.214,5.7H21V2.18A3.956,3.956,0,0,1,24.214,5.7Z" transform="translate(-21 -2.18)"/>
        </g>
        <g id="Group_131124" data-name="Group 131124" transform="translate(2.166 0.065)">
          <path id="Path_40816" data-name="Path 40816" class="cls-10" d="M11.254,2.184V5.7H8.04A3.951,3.951,0,0,1,11.254,2.18Z" transform="translate(-8.04 -2.18)"/>
        </g>
        <g id="Group_131125" data-name="Group 131125" transform="translate(5.38)">
          <path id="Path_40817" data-name="Path 40817" class="cls-11" d="M18.435,2.068V5.587H17V2.065a4.018,4.018,0,0,1,1.435,0Z" transform="translate(-17 -2)"/>
        </g>
        <g id="Group_131126" data-name="Group 131126" transform="translate(1.435 3.587)">
          <path id="Path_40818" data-name="Path 40818" class="cls-11" d="M6.359,12h8.608a.36.36,0,0,1,.359.359v.717a.36.36,0,0,1-.359.359H6.359A.36.36,0,0,1,6,13.076v-.717A.36.36,0,0,1,6.359,12Z" transform="translate(-6 -12)"/>
        </g>
      </g>
      <g id="Group_131128" data-name="Group 131128" transform="translate(1 1)">
        <path id="Path_40819" data-name="Path 40819" class="cls-12" d="M21.974,17.5,23.212,14.4l-.666-.266L21.2,17.5h-.116V13.2h-.717V7.456H18.934V6.021h-.717V7.456H17.5V5.3h-.717V7.456h-.717V6.021h-.717V7.456H13.912v4.3H12.478V13.6a6.373,6.373,0,0,0-3.309-2.141l-.163-.488a1.8,1.8,0,0,0,1.167-1h.152A1.436,1.436,0,0,0,11.76,8.532V6.739a.718.718,0,0,0,.717-.717V5.3a.718.718,0,0,0-.717-.717H11.7a4.3,4.3,0,0,0-8.483,0H3.152a.718.718,0,0,0-.717.717v.717a.718.718,0,0,0,.717.717V8.532A1.436,1.436,0,0,0,4.587,9.967h.152a1.8,1.8,0,0,0,1.167,1l-.163.488A6.344,6.344,0,0,0,1,17.622v.236a3.947,3.947,0,0,0,2.152,3.51v1.87h10.76V20.369h1.112a1.793,1.793,0,0,0,3.514,0h1.8a2.925,2.925,0,0,0,2.894-2.452l.07-.418Zm-4.475,0V13.912h2.869V17.5ZM14.63,8.174h5.021V13.2H17.5V11.76H14.63Zm2.152,4.3V17.5H13.2V12.478Zm-4.3,2.395V17.5h-.116l-1.345-3.362-.666.266,1.238,3.1H10.261l.07.418a2.927,2.927,0,0,0,.712,1.48v3.124H9.25V21.8a1.076,1.076,0,1,0,0-2.152V12.236a5.654,5.654,0,0,1,3.228,2.636Zm-4.2-3.829.221.664L7.456,13.266,6.417,11.707l.222-.664Zm.259,3.64-.632-.79.632-.948Zm-2.152,0V12.945l.632.948Zm0,1.148,1.076-1.345,1.076,1.345V19a1.073,1.073,0,0,0-.359-.063h-.42a1.07,1.07,0,0,0-.761.315l-.368.368-.244-.055ZM7.1,20.158l.4-.4a.357.357,0,0,1,.254-.105h.42a.359.359,0,0,1,.359.359v.359H9.25a.359.359,0,1,1,0,.717H7.1ZM8.532,21.8v.717H6.38V21.8ZM10.326,9.25V7.815a.717.717,0,1,1,0,1.435ZM11.043,7.3a1.42,1.42,0,0,0-.717-.2V6.739h.717Zm-.073-2.71H8.532V1.882A3.556,3.556,0,0,1,10.97,4.587ZM7.815,1.735V4.587H7.1V1.735c.118-.011.237-.018.359-.018S7.7,1.724,7.815,1.735ZM6.38,1.882V4.587H3.943A3.556,3.556,0,0,1,6.38,1.882ZM3.152,5.3H11.76v.717H3.152ZM4.587,6.739V7.1a1.42,1.42,0,0,0-.717.2V6.739ZM3.869,8.532a.718.718,0,0,1,.717-.717V9.25A.718.718,0,0,1,3.869,8.532ZM5.3,9.25V6.739h4.3V9.25a1.077,1.077,0,0,1-1.076,1.076H6.38A1.077,1.077,0,0,1,5.3,9.25ZM1.717,17.858v-.236a5.627,5.627,0,0,1,3.945-5.391V19.4l-.389-.086a1.783,1.783,0,0,1-1.4-1.751v-1.5H3.152v1.5a2.5,2.5,0,0,0,1.966,2.451l1.262.28v.788H4.945A3.232,3.232,0,0,1,1.717,17.858ZM3.869,21.65a3.933,3.933,0,0,0,1.076.153h.717v.717H3.869Zm7.891.87V19.979a2.932,2.932,0,0,0,1.435.388v2.153Zm5.021-1.435a1.077,1.077,0,0,1-1.076-1.076.359.359,0,0,1,.359-.359H17.5a.359.359,0,0,1,.359.359A1.077,1.077,0,0,1,16.782,21.086Zm3.557-1.435h-1.83a1.075,1.075,0,0,0-1.01-.717H16.064a1.075,1.075,0,0,0-1.01.717h-1.83a2.209,2.209,0,0,1-2.075-1.435H22.413a2.207,2.207,0,0,1-2.074,1.435Z" transform="translate(-1 -1)"/>
        <path id="Path_40827" data-name="Path 40827" class="cls-12" d="M37,35h.717v3.587H37Z" transform="translate(-24.088 -22.805)"/>
        <path id="Path_40828" data-name="Path 40828" class="cls-12" d="M41,35h.717v3.587H41Z" transform="translate(-26.653 -22.805)"/>
        <path id="Path_40829" data-name="Path 40829" class="cls-12" d="M49,39h1.435v.717H49Z" transform="translate(-31.783 -25.37)"/>
        <path id="Path_40831" data-name="Path 40831" class="cls-12" d="M49,39h2.769v.717H49Z" transform="translate(-34.294 -31.37)"/>
        <path id="Path_40832" data-name="Path 40832" class="cls-12" d="M49,39h2.769v.717H49Z" transform="translate(-34.294 -29.37)"/>
        <path id="Path_40830" data-name="Path 40830" class="cls-12" d="M49,43h1.435v.717H49Z" transform="translate(-31.783 -27.936)"/>
      </g>
    </g>
  </g>
</svg>
