<svg xmlns="http://www.w3.org/2000/svg" width="28" height="28" viewBox="0 0 28 28">
    <defs>
        <style>
            .cls-1{fill:none}.cls-2{fill:#fff}.cls-5{fill:#ffc10d}
        </style>
    </defs>
    <g id="Internet" transform="translate(-13 -419)">
        <path id="Rectangle_91" d="M0 0h28v28H0z" class="cls-1" transform="translate(13 419)"/>
        <path id="Rectangle_91-2" d="M0 0h28v28H0z" class="cls-1" transform="translate(13 419)"/>
        <g id="internet-2" transform="translate(16 421.875)">
            <g id="Group_15086" transform="translate(1.25 1.444)">
                <path id="Path_14095" d="M252.292 174.54a15.827 15.827 0 0 1-.17 1.779l2.333.775a7.782 7.782 0 0 0 .634-2.554h-2.8z" class="cls-2" transform="translate(-239.243 -166.085)"/>
                <path id="Path_14096" d="M247.776 92.4h2.793a7.849 7.849 0 0 0-1.169-3.58c-.681.152-1.369.279-2.058.38a15.432 15.432 0 0 1 .434 3.2z" class="cls-2" transform="translate(-234.727 -85.168)"/>
                <path id="Path_14097" d="M219.669 33.353a9.239 9.239 0 0 1 1.192 2.3c.536-.08 1.072-.17 1.612-.279a8.065 8.065 0 0 0-2.804-2.021z" class="cls-2" transform="translate(-208.609 -32.81)"/>
                <path id="Path_14098" d="M174.61 23.656v3.155c.822-.018 1.648-.069 2.467-.152a4.811 4.811 0 0 0-2.467-3.003z" class="cls-2" transform="translate(-166.075 -23.656)"/>
                <path id="Path_14099" d="M176.578 247.705l-.355-1.065c-.558-.043-1.116-.069-1.677-.083v3.188a3.977 3.977 0 0 0 2.032-2.04z" class="cls-2" transform="translate(-166.014 -234.066)"/>
                <path id="Path_14101" d="M174.549 101.556h3.289a14.35 14.35 0 0 0-.442-3.039c-.949.105-1.9.163-2.851.181v2.858z" class="cls-2" transform="translate(-166.013 -94.322)"/>
                <path id="Path_14102" d="M176.168 175.419l1.547.514a13.408 13.408 0 0 0 .12-1.391h-3.289v2.818c.42.007.837.025 1.257.051l-.409-1.217a.6.6 0 0 1 .774-.775z" class="cls-2" transform="translate(-166.013 -166.086)"/>
                <path id="Path_14103" d="M25.1 174.541h-2.8a7.872 7.872 0 0 0 1.156 3.554c.685-.152 1.377-.286 2.065-.391a15.846 15.846 0 0 1-.421-3.163z" class="cls-2" transform="translate(-22.303 -166.086)"/>
                <path id="Path_14104" d="M22.3 92.463h2.8a15.355 15.355 0 0 1 .438-3.2c-.688-.105-1.377-.235-2.058-.38a7.864 7.864 0 0 0-1.18 3.58z" class="cls-2" transform="translate(-22.303 -85.229)"/>
                <path id="Path_14105" d="M60.027 254.58a9.038 9.038 0 0 1-1.2-2.333c-.54.08-1.083.178-1.619.286a8.162 8.162 0 0 0 2.819 2.047z" class="cls-2" transform="translate(-55.256 -239.437)"/>
                <path id="Path_14106" d="M108.735 26.659c.819.083 1.645.134 2.467.152v-3.155a4.8 4.8 0 0 0-2.467 3.003z" class="cls-2" transform="translate(-103.891 -23.656)"/>
                <path id="Path_14107" d="M57.729 35.447c.533.109 1.069.2 1.612.279a9.082 9.082 0 0 1 1.192-2.308 7.885 7.885 0 0 0-2.804 2.029z" class="cls-2" transform="translate(-55.744 -32.871)"/>
                <path id="Path_14108" d="M97.35 174.541h-3.289a14.241 14.241 0 0 0 .435 3c.949-.109 1.906-.163 2.862-.181v-2.818z" class="cls-2" transform="translate(-90.04 -166.086)"/>
                <path id="Path_14109" d="M110.959 249.878v-3.192c-.83.018-1.659.065-2.482.152a4.826 4.826 0 0 0 2.482 3.04z" class="cls-2" transform="translate(-103.648 -234.188)"/>
                <path id="Path_14110" d="M97.289 98.7c-.953-.018-1.906-.08-2.851-.181a14.35 14.35 0 0 0-.438 3.037h3.289V98.7z" class="cls-2" transform="translate(-89.978 -94.322)"/>
            </g>
            <path id="Path_14111" fill="#56ace0" d="M217.277 217.725l2.5 7.474.822-1.913a.61.61 0 0 1 .993-.192l2.547 2.536 1.069-1.069-2.543-2.536a.6.6 0 0 1 .192-1l1.913-.819z" transform="translate(-205.101 -205.406)"/>
            <path id="Path_14112" fill="#333a60" d="M21.581 14.16l-3.96-1.315a9.17 9.17 0 1 0-8.455 5.612 9.067 9.067 0 0 0 3.529-.71l1.321 3.953a.611.611 0 0 0 1.138.047l1.1-2.558 2.337 2.333a.608.608 0 0 0 .862 0l1.935-1.931a.611.611 0 0 0 0-.866l-2.337-2.329 2.566-1.096a.606.606 0 0 0-.036-1.14zm-3.822 1.47a.6.6 0 0 0-.192 1l2.543 2.536-1.069 1.069-2.547-2.535a.607.607 0 0 0-.993.192l-.822 1.908-2.5-7.474 7.492 2.489zm-5.445.96zm-1.685-5.039l.406 1.221c-.42-.025-.837-.043-1.257-.051V9.9h3.289c-.018.471-.065.935-.12 1.391l-1.547-.515a.6.6 0 0 0-.771.775zm2.007-5.912a14.35 14.35 0 0 1 .442 3.039H9.789V5.82c.945-.02 1.898-.076 2.847-.181zM9.785 4.6V1.444a4.778 4.778 0 0 1 2.467 3.007q-1.233.119-2.467.149zm4.344 7.079A15.8 15.8 0 0 0 14.3 9.9h2.8a7.651 7.651 0 0 1-.634 2.554zm2.967-3H14.3a15.355 15.355 0 0 0-.438-3.2c.688-.105 1.377-.235 2.058-.38a7.95 7.95 0 0 1 1.18 3.579zM13.5 4.291a9.118 9.118 0 0 0-1.192-2.3 7.97 7.97 0 0 1 2.8 2.025c-.534.109-1.07.199-1.608.275zm-3.715 9.648c.558.015 1.116.04 1.677.083l.355 1.065a4.029 4.029 0 0 1-2.032 2.043v-3.191zM1.25 9.9h2.793a15.836 15.836 0 0 0 .427 3.163c-.692.105-1.38.239-2.065.391A7.946 7.946 0 0 1 1.25 9.9zm4.452 3a14.242 14.242 0 0 1-.435-3h3.29v2.818c-.949.018-1.906.082-2.857.182zm2.858 1.04v3.2a4.816 4.816 0 0 1-2.482-3.039c.822-.094 1.657-.144 2.483-.162zM5.267 8.678a14.35 14.35 0 0 1 .442-3.039c.949.105 1.9.163 2.851.181v2.858zM4.84 4.295c-.54-.08-1.08-.174-1.612-.279a8.056 8.056 0 0 1 2.8-2.032A9.541 9.541 0 0 0 4.84 4.295zm-.355 1.184a15.389 15.389 0 0 0-.438 3.2H1.25A7.849 7.849 0 0 1 2.424 5.1c.684.144 1.369.274 2.061.379zm.341 8.767a9.094 9.094 0 0 0 1.2 2.333 7.933 7.933 0 0 1-2.815-2.054c.539-.101 1.075-.195 1.614-.279zM8.561 4.6c-.822-.018-1.648-.065-2.467-.152A4.819 4.819 0 0 1 8.561 1.44z"/>
            <g id="Group_15087" transform="translate(2.474 2.592)">
                <path id="Path_14113" d="M239.676 70.786c-.072-.065-.148-.13-.225-.2.025.072.058.141.087.217a.987.987 0 0 0 .138-.017z" class="cls-5" transform="translate(-228.507 -69.108)"/>
                <path id="Path_14114" d="M174.61 98.7v2.858h3.29a14.35 14.35 0 0 0-.442-3.039c-.946.103-1.899.161-2.848.181z" class="cls-5" transform="translate(-167.299 -95.47)"/>
                <path id="Path_14115" d="M177.964 174.541h-3.289v2.818c.42.007.837.025 1.257.051l-.413-1.217a.6.6 0 0 1 .772-.775l1.547.514c.062-.456.105-.92.126-1.391z" class="cls-5" transform="translate(-167.361 -167.234)"/>
                <path id="Path_14116" d="M176.952 46a7.838 7.838 0 0 0-.728-1.46 6.629 6.629 0 0 0-1.743-.395v2q1.244-.014 2.471-.145z" class="cls-5" transform="translate(-167.178 -44.149)"/>
                <path id="Path_14117" d="M83.2 252.271c.087.08.174.152.261.225-.029-.083-.065-.163-.094-.25a1.327 1.327 0 0 0-.167.025z" class="cls-5" transform="translate(-81.012 -240.584)"/>
                <path id="Path_14118" d="M252.121 176.321l1.17.391a6.727 6.727 0 0 0 .572-2.17h-1.572a15.816 15.816 0 0 1-.17 1.779z" class="cls-5" transform="translate(-240.467 -167.235)"/>
                <path id="Path_14119" d="M247.776 96.674h1.569a6.686 6.686 0 0 0-1.25-3.329c-.25.043-.5.091-.757.127a15.431 15.431 0 0 1 .438 3.202z" class="cls-5" transform="translate(-235.952 -90.588)"/>
                <path id="Path_14120" d="M174.61 246.622v2.043a6.5 6.5 0 0 0 1.724-.384c.105-.159.207-.33.308-.514l-.355-1.065c-.565-.04-1.123-.065-1.677-.08z" class="cls-5" transform="translate(-167.299 -235.276)"/>
                <path id="Path_14121" d="M108.477 246.838a8.071 8.071 0 0 0 .739 1.493 6.78 6.78 0 0 0 1.743.4v-2.043c-.826.012-1.659.063-2.482.15z" class="cls-5" transform="translate(-104.872 -235.336)"/>
                <path id="Path_14122" d="M45.787 96.735a15.355 15.355 0 0 1 .438-3.2c-.257-.04-.507-.083-.757-.127a6.673 6.673 0 0 0-1.25 3.329h1.569z" class="cls-5" transform="translate(-44.214 -90.649)"/>
                <path id="Path_14123" d="M45.726 174.541h-1.572a6.74 6.74 0 0 0 1.225 3.3c.257-.047.514-.094.772-.134a15.837 15.837 0 0 1-.425-3.166z" class="cls-5" transform="translate(-44.154 -167.234)"/>
                <path id="Path_14124" d="M111.142 44.214a6.967 6.967 0 0 0-1.743.395 8.313 8.313 0 0 0-.728 1.46c.819.083 1.645.134 2.467.152v-2.007z" class="cls-5" transform="translate(-105.056 -44.21)"/>
                <path id="Path_14125" d="M97.35 174.541h-3.289a14.241 14.241 0 0 0 .435 3c.949-.109 1.906-.163 2.862-.181v-2.818z" class="cls-5" transform="translate(-91.264 -167.234)"/>
                <path id="Path_14126" d="M97.289 98.7c-.953-.018-1.906-.08-2.851-.181a14.35 14.35 0 0 0-.438 3.037h3.289V98.7z" class="cls-5" transform="translate(-91.203 -95.47)"/>
                <path id="Path_14127" d="M84.139 70.59c-.08.065-.156.13-.228.2.047.007.094.018.141.022.026-.073.058-.146.087-.222z" class="cls-5" transform="translate(-81.683 -69.108)"/>
            </g>
        </g>
    </g>
</svg>
