<svg xmlns="http://www.w3.org/2000/svg" xmlns:xlink="http://www.w3.org/1999/xlink" width="28" height="28" viewBox="0 0 28 28">
  <defs>
    <style>
      .cls-1 {
        fill: none;
      }

      .cls-2 {
        clip-path: url(#clip-path);
      }

      .cls-3 {
        fill: #99a4ac;
      }

      .cls-3, .cls-4, .cls-5, .cls-6 {
        fill-rule: evenodd;
      }

      .cls-4, .cls-6 {
        fill: #f3a766;
      }

      .cls-5 {
        fill: #ffe600;
        stroke: #ffe600;
      }

      .cls-6 {
        stroke: #f3a766;
      }

      .cls-7 {
        fill: #3c3b5c;
      }
    </style>
    <clipPath id="clip-path">
      <rect id="Rectangle_71413" data-name="Rectangle 71413" class="cls-1" width="28" height="28" transform="translate(7965 -157)"/>
    </clipPath>
  </defs>
  <g id="Jewellery" transform="translate(-7965 157)">
    <g id="Group_13945" data-name="Group 13945" class="cls-2">
      <g id="Layer_x0020_1" transform="translate(7969.813 -153.099)">
        <path id="Path_41363" data-name="Path 41363" class="cls-3" d="M7.893,1.347A11.968,11.968,0,0,1,4.752,3.091L4.729,3.1H4.556l-.017,0h0a.435.435,0,0,1-.057-.014c-.011,0-.062-.02-.147-.052l-.022-.008-.008,0-.018-.007-.014-.005-.013,0L4.235,3,4.228,3A12.806,12.806,0,0,1,1.336,1.347L.521,5.211H8.708L7.893,1.347Z" transform="translate(4.259 13.653)"/>
        <path id="Path_41359" data-name="Path 41359" class="cls-4" d="M5.295,7.444c2.092,0,3.928-1.618,4.839-4.243A9.885,9.885,0,0,1,8.489.08H2.1A9.884,9.884,0,0,1,.456,3.2C1.367,5.826,3.2,7.444,5.295,7.444Z" transform="translate(3.469 0.607)"/>
        <g id="Group_131307" data-name="Group 131307" transform="translate(4.32 7.008)">
          <path id="Path_41360" data-name="Path 41360" class="cls-5" d="M2.059,1.721,1.258.61l-.8,1.112.8,1.112Z" transform="translate(-0.456 -0.61)"/>
          <path id="Path_41361" data-name="Path 41361" class="cls-5" d="M1.865.78.757,2.316,1.865,3.853,2.974,2.316Z" transform="translate(2.705 1.172)"/>
          <path id="Path_41362" data-name="Path 41362" class="cls-5" d="M1.111,1.721l.8,1.112.8-1.112L1.913.61Z" transform="translate(6.425 -0.61)"/>
        </g>
        <path id="Path_41358" data-name="Path 41358" class="cls-6" d="M9.338,11.285l.046-.024.053-.027h0l.055-.029.005,0,.05-.027.012-.006.044-.024.019-.01.017-.01.032-.018.034-.019.02-.011.047-.026.007,0,.05-.028.013-.008.049-.028.056-.032,0,0,.06-.035,0,0,.057-.034.044-.027.024-.015.038-.023L10.2,10.8l.047-.029.012-.007c.267-.167.545-.354.828-.564l.013-.009q.248-.184.5-.392a11.847,11.847,0,0,0,4.252-7.933A6.37,6.37,0,0,1,13.28.4a8.2,8.2,0,0,1-.929,1.686l1.171,1.624a.459.459,0,0,1,0,.538l-1.369,1.9a.46.46,0,0,1-.746,0l-1.369-1.9a.459.459,0,0,1-.075-.167,4.864,4.864,0,0,1-1.107.337l1.2,1.668a.459.459,0,0,1,0,.538L8.385,8.942a.46.46,0,0,1-.746,0L5.964,6.619a.459.459,0,0,1,0-.538l1.2-1.668A4.865,4.865,0,0,1,6.06,4.076a.459.459,0,0,1-.075.167L4.616,6.14a.46.46,0,0,1-.746,0L2.5,4.243a.459.459,0,0,1,0-.538L3.673,2.081A8.2,8.2,0,0,1,2.743.4,6.37,6.37,0,0,1,.171,1.863,11.846,11.846,0,0,0,4.423,9.8q.254.21.5.4l.008.006.187.136.019.014.041.029.031.022.038.027.049.034.009.006a11.7,11.7,0,0,0,2.7,1.4c.056-.019.129-.045.217-.078h0l.03-.011h0l.028-.011c.073-.028.156-.061.246-.1h0l.04-.017h0l.039-.016.007,0,.034-.015.172-.076.009,0,.039-.018.042-.019.005,0,.048-.022h0l.048-.023.043-.021.006,0,.012-.006.037-.018.005,0,.04-.02.008,0,.045-.023.008,0,.044-.022.009,0,.045-.023.01-.005Z" transform="translate(0.879 4.146)"/>
        <path id="Subtraction_28" data-name="Subtraction 28" class="cls-7" d="M-8129.863-1514.385h-16.293a.36.36,0,0,1-.36-.36.36.36,0,0,1,.36-.36h3.461l.93-3.936-.049-.041c-.1-.073-.188-.146-.274-.219a12.846,12.846,0,0,1-4.623-8.915.362.362,0,0,1,.313-.393,5.378,5.378,0,0,0,2.991-1.787l.008-.01a.372.372,0,0,1,.065-.076l.01-.01a8.376,8.376,0,0,0,1.619-3.055.358.358,0,0,1,.344-.255h6.7a.357.357,0,0,1,.343.255,7.431,7.431,0,0,0,2.845,4.135,4.793,4.793,0,0,0,1.85.8.361.361,0,0,1,.313.393,12.842,12.842,0,0,1-4.623,8.915c-.1.081-.189.155-.274.219l-.051.041.932,3.936h3.459a.36.36,0,0,1,.36.36.363.363,0,0,1-.1.255A.368.368,0,0,1-8129.863-1514.385Zm-11.27-4.2h0l-.822,3.478h7.892l-.822-3.478-.121.08a11.656,11.656,0,0,1-2.9,1.437l-.006,0-.013,0-.028,0-.031,0,.008.1-.012-.1,0,.1-.01-.1v.1l-.006-.1v.1l-.006-.1,0,.1,0-.1,0,.1,0-.1-.008.1v-.1l-.006.1,0-.1-.016.1.006-.1-.012.1.006-.1-.019,0-.023,0-.017,0-.042-.014-.009,0-.009,0-.074-.024-.094-.033a12.353,12.353,0,0,1-2.677-1.364Zm-2.106-10.947-.106.1a6.271,6.271,0,0,1-2.531,1.443l-.084.025.01.086a11.952,11.952,0,0,0,4.288,8c.169.139.34.273.509.4l.008.006.086.063.016.012.017.012.069.05.19.133a11.547,11.547,0,0,0,2.726,1.407l.033.012.033-.012c.05-.016.1-.036.159-.057l.062-.023.062-.023c.083-.033.167-.067.251-.1l.123-.053.106-.046.006,0,.062-.027.393-.188.554-.294.493-.292c.276-.173.556-.364.832-.568l.014-.01c.168-.124.338-.257.505-.395a11.944,11.944,0,0,0,4.285-8l.012-.086-.083-.025a6.271,6.271,0,0,1-2.531-1.443l-.106-.1-.053.133a8.187,8.187,0,0,1-.918,1.666l-.043.057,1.212,1.683a.356.356,0,0,1,0,.421l-1.368,1.9a.36.36,0,0,1-.292.149.36.36,0,0,1-.292-.149l-1.368-1.9a.34.34,0,0,1-.06-.131l-.026-.119-.11.049a4.765,4.765,0,0,1-1.086.329l-.155.029,1.3,1.8a.365.365,0,0,1,0,.421l-1.677,2.323a.352.352,0,0,1-.29.149.359.359,0,0,1-.292-.149l-1.675-2.323a.358.358,0,0,1,0-.421l1.3-1.8-.157-.029a4.79,4.79,0,0,1-1.084-.329l-.11-.049-.026.119a.343.343,0,0,1-.059.131l-1.37,1.9a.352.352,0,0,1-.291.149.359.359,0,0,1-.292-.149l-1.368-1.9a.358.358,0,0,1,0-.421l1.212-1.683-.043-.057a8.122,8.122,0,0,1-.918-1.666Zm5.23,4.418h0l-1.231,1.707,1.231,1.707,1.23-1.707-1.23-1.707Zm3.768-1.951h0l-.926,1.282.926,1.282.926-1.282-.926-1.282Zm-7.537,0h0l-.926,1.282.926,1.282.924-1.282-.924-1.282Zm.681-6.019h0l-.022.067a9.035,9.035,0,0,1-1.536,2.85l-.037.043.018.053a6.818,6.818,0,0,0,1.9,2.907,4.219,4.219,0,0,0,2.769,1.073,4.217,4.217,0,0,0,2.766-1.073,6.8,6.8,0,0,0,1.9-2.907l.019-.053-.037-.043a9.054,9.054,0,0,1-1.535-2.85l-.022-.068Z" transform="translate(8146.9 1533.9)"/>
      </g>
    </g>
  </g>
</svg>
