<svg xmlns="http://www.w3.org/2000/svg" id="Jobs" width="28" height="28" viewBox="0 0 28 28">
    <defs>
        <style>
            .cls-3{fill:#e1e6e9}.cls-4{fill:#fff}.cls-5{fill:#323c6b;stroke:#323c6b;stroke-width:.4px}.cls-6{fill:#ffd39f}.cls-8{fill:#05afd6}
        </style>
    </defs>
    <path id="Rectangle_91" fill="none" d="M0 0h28v28H0z"/>
    <g id="Icons" transform="translate(3.8 1.934)">
        <path id="Path_12621" fill="#eeefee" d="M22.386 45.188a7.246 7.246 0 0 1 6.857 7.15v2.214H8.729v-2.213a7.279 7.279 0 0 1 6.893-7.15" transform="translate(-8.548 -30.733)"/>
        <path id="Path_12622" d="M8.729 68.083h20.512v1.058H8.729z" class="cls-3" transform="translate(-8.548 -45.323)"/>
        <path id="Path_12623" d="M46.417 45.209v.006a1.2 1.2 0 0 1-.127.309 6.931 6.931 0 0 1 5.752 6.828v2.213h1.134v-2.213a7.247 7.247 0 0 0-6.759-7.143z" class="cls-3" transform="translate(-32.482 -30.747)"/>
        <path id="Path_12624" d="M27.731 43.661l.876-.87 2.486 2.137L29 46.705z" class="cls-4" transform="translate(-20.656 -29.206)"/>
        <path id="Path_12625" d="M28.679 46.566a.174.174 0 0 1-.042-.005.181.181 0 0 1-.125-.107l-1.267-3.044a.181.181 0 0 1 .04-.2l.877-.871a.181.181 0 0 1 .246-.009l2.486 2.137a.181.181 0 0 1 0 .276l-2.1 1.778a.181.181 0 0 1-.115.045zm-1.052-3.183l1.125 2.7 1.748-1.476-2.2-1.889z" class="cls-5" transform="translate(-20.337 -28.886)"/>
        <path id="Path_12626" d="M40.4 43.661l-.914-.87L37 44.928l2.1 1.777z" class="cls-4" transform="translate(-26.562 -29.206)"/>
        <path id="Path_12627" d="M38.778 46.567a.181.181 0 0 1-.117-.043l-2.1-1.778a.181.181 0 0 1 0-.276l2.486-2.137a.181.181 0 0 1 .243.006l.915.871a.181.181 0 0 1 .042.2l-1.3 3.044a.181.181 0 0 1-.167.109zm-1.817-1.959l1.746 1.481 1.158-2.7-.7-.669z" class="cls-5" transform="translate(-26.245 -28.886)"/>
        <path id="Path_12628" d="M35.119 42.791l-2.486 2.137-2.486-2.137z" class="cls-6" transform="translate(-22.196 -29.206)"/>
        <path id="Path_12629" fill="#323c6b" d="M32.315 44.791a.181.181 0 0 1-.118-.044L29.71 42.61a.181.181 0 0 1 .118-.319H34.8a.181.181 0 0 1 .118.319l-2.486 2.137a.181.181 0 0 1-.117.044zm-2-2.137l2 1.716 2-1.716z" transform="translate(-21.877 -28.887)"/>
        <path id="Path_12630" d="M36.231 49.565l-.392.8h-1.285l-.4-.813 1.031-.875z" class="cls-8" transform="translate(-24.751 -32.959)"/>
        <path id="Path_12631" d="M35.52 50.232h-1.285a.181.181 0 0 1-.163-.1l-.4-.813a.181.181 0 0 1 .046-.218l1.032-.874a.181.181 0 0 1 .234 0l1.044.883a.181.181 0 0 1 .046.218l-.392.8a.181.181 0 0 1-.164.1zm-1.171-.363h1.058l.28-.576-.817-.693-.807.684z" class="cls-5" transform="translate(-24.432 -32.641)"/>
        <path id="Path_12632" d="M35.909 58.412l-1.478 1.33-1.462-1.33.827-5.079h1.285z" class="cls-8" transform="translate(-23.994 -35.924)"/>
        <path id="Path_12633" d="M34.113 59.6a.181.181 0 0 1-.122-.047l-1.462-1.331a.181.181 0 0 1-.057-.164l.827-5.079a.181.181 0 0 1 .179-.152h1.285a.181.181 0 0 1 .179.152l.828 5.079a.181.181 0 0 1-.057.164l-1.478 1.33a.181.181 0 0 1-.122.048zm-1.268-1.58l1.27 1.154 1.285-1.151-.788-4.829h-.977z" class="cls-5" transform="translate(-23.675 -35.603)"/>
        <path id="Path_12636" d="M20.351 27.1c-.424.056-.876.561-.719 1.4a1.639 1.639 0 0 0 1.56 1.4" class="cls-6" transform="translate(-15.475 -19.207)"/>
        <path id="Path_12637" d="M20.868 29.763a1.818 1.818 0 0 1-1.734-1.551 1.543 1.543 0 0 1 .218-1.2A.988.988 0 0 1 20 26.6a.181.181 0 1 1 .047.36.627.627 0 0 0-.41.268 1.188 1.188 0 0 0-.154.922 1.46 1.46 0 0 0 1.388 1.25.181.181 0 0 1 0 .363z" class="cls-5" transform="translate(-15.15 -18.884)"/>
        <path id="Path_12638" d="M50.893 27.1c.424.056.876.561.719 1.4a1.639 1.639 0 0 1-1.56 1.4" class="cls-6" transform="translate(-34.88 -19.207)"/>
        <path id="Path_12639" d="M49.725 29.764a.181.181 0 0 1 0-.363 1.46 1.46 0 0 0 1.388-1.254 1.188 1.188 0 0 0-.154-.922.627.627 0 0 0-.41-.268.181.181 0 1 1 .047-.36.988.988 0 0 1 .657.414 1.543 1.543 0 0 1 .218 1.2 1.818 1.818 0 0 1-1.735 1.551z" class="cls-5" transform="translate(-34.554 -18.886)"/>
        <path id="Path_12640" d="M33.1 20.549l-.468-1.759-.76-1.24-.975-1.3-3.005.423-5.31.846v3.029c0 2.9 2.428 6.162 5.239 6.162s5.111-3.331 5.279-6.31z" class="cls-6" transform="translate(-17.372 -12.294)"/>
        <path id="Path_12641" fill="#e9c8a0" d="M41.351 20.509c-.21 2.953-2.489 6.2-5.268 6.2a3.768 3.768 0 0 1-.533-.04c2.06-.3 3.769-2.351 4.444-4.589a4.775 4.775 0 0 0 .022-2.605 4.9 4.9 0 0 0-.555-1.3l-.385-.633-.876-1.158.958-.134.976 1.3.758 1.241z" transform="translate(-25.639 -12.294)"/>
        <path id="Path_12642" fill="#f7be56" d="M51.551 27.684c0 .036-.008.074-.011.111l.011.041z" transform="translate(-35.828 -19.58)"/>
        <path id="Path_12643" d="M27.5 26.576c-3 0-5.42-3.47-5.42-6.344V17.2a.181.181 0 0 1 .153-.179l5.31-.846 3.009-.424a.184.184 0 0 1 .171.073l.975 1.3.769 1.253a.2.2 0 0 1 .021.048l.4 1.51a.181.181 0 0 1 .073.145v.152a.182.182 0 0 1-.016.073c-.265 3.006-2.591 6.271-5.445 6.271zm-5.058-9.219v2.874c0 2.709 2.256 5.981 5.057 5.981 2.681 0 4.864-3.133 5.088-5.993l-.445-1.676-.742-1.218-.9-1.2-2.9.408z" class="cls-5" transform="translate(-17.055 -11.976)"/>
        <path id="Path_12644" fill="#828a9e" d="M32.076 10.025c0 .174-.486 3.419-.486 3.419a.39.39 0 0 1-.758.076L30.5 12.5c-.628-1.872-2.336-2.224-4.444-1.574a19 19 0 0 1-3.657.805 1.233 1.233 0 0 0-1.074.925l-.207 1.016a.308.308 0 0 1-.3.247.315.315 0 0 1-.308-.247s-.307-1.018-.532-1.914a4.822 4.822 0 0 1 .2-3.084q.065-.149.14-.3s.007-.007.007-.011a6.151 6.151 0 0 1 5.143-2.525A4.492 4.492 0 0 1 29 7.491c.471-.538 3.135-.333 3.073 2.535z" transform="translate(-15.612 -5.661)"/>
        <path id="Path_12645" fill="#62667c" d="M29.585 7.493a4.488 4.488 0 0 0-3.527-1.65 6.15 6.15 0 0 0-5.143 2.525l-.007.011q-.075.145-.14.3c-.013.03-.022.061-.034.091a6.436 6.436 0 0 1 4.832-2.083 4.172 4.172 0 0 1 3.047 1.191 1 1 0 0 0 .875.26c.888-.2 2.729.342 2.677 2.732 0 .131-.277 2-.412 2.919.012 0 .022.005.034.005a.392.392 0 0 0 .388-.345s.482-3.245.486-3.419c.059-2.872-2.605-3.076-3.076-2.537z" transform="translate(-16.194 -5.662)"/>
        <g id="Group_14419">
            <path id="Path_12646" d="M20.5 13.781a.5.5 0 0 1-.485-.389s-.308-1.02-.531-1.909a5.028 5.028 0 0 1 .213-3.2q.067-.155.145-.307a.2.2 0 0 1 .015-.024.2.2 0 0 1 .018-.024 6.309 6.309 0 0 1 5.284-2.587A4.584 4.584 0 0 1 28.7 6.932a2.017 2.017 0 0 1 1.629-.005 2.657 2.657 0 0 1 1.611 2.786c0 .177-.407 2.9-.489 3.442a.571.571 0 0 1-1.109.109l-.326-1.027c-.692-2.063-2.676-1.931-4.218-1.456a19.16 19.16 0 0 1-3.693.812 1.055 1.055 0 0 0-.916.79l-.205 1.006a.492.492 0 0 1-.482.392zm-.349-5.614q-.065.13-.122.261a4.661 4.661 0 0 0-.193 2.966c.221.882.527 1.9.53 1.906a.136.136 0 0 0 .262.017l.207-1.016a1.421 1.421 0 0 1 1.235-1.07 18.822 18.822 0 0 0 3.62-.8c2.4-.739 4.056-.139 4.669 1.69l.327 1.026a.209.209 0 0 0 .405-.044c.192-1.29.479-3.256.485-3.4A2.289 2.289 0 0 0 30.2 7.264a1.471 1.471 0 0 0-1.375.03.181.181 0 0 1-.131.062.161.161 0 0 1-.134-.053 4.307 4.307 0 0 0-3.4-1.6 6 6 0 0 0-4.987 2.435.173.173 0 0 1-.019.026z" class="cls-5" transform="translate(-15.296 -5.344)"/>
            <path id="Path_12649" d="M28.923 54.416H8.41a.181.181 0 0 1-.181-.181v-2.214A7.456 7.456 0 0 1 15.3 44.69a.185.185 0 0 1 .187.176.181.181 0 0 1-.176.187 7.087 7.087 0 0 0-6.717 6.969v2.032h20.147v-2.033a7.068 7.068 0 0 0-6.679-6.969.181.181 0 0 1-.176-.187.177.177 0 0 1 .187-.176 7.436 7.436 0 0 1 7.027 7.332v2.213a.181.181 0 0 1-.177.182z" class="cls-5" transform="translate(-8.229 -30.416)"/>
        </g>
    </g>
</svg>
