<svg xmlns="http://www.w3.org/2000/svg" width="28" height="28" viewBox="0 0 28 28">
  <defs>
    <style>
      .cls-1 {
        fill: none;
      }

      .cls-2 {
        fill: #f9b691;
      }

      .cls-3 {
        fill: #d87742;
      }

      .cls-4 {
        fill: #323c6b;
        stroke: #323c6b;
        stroke-width: 0.4px;
      }

      .cls-5 {
        fill: #efa176;
      }
    </style>
  </defs>
  <g id="Lawyers" transform="translate(-102 -285)">
    <path id="Rectangle_6234" data-name="Rectangle 6234" class="cls-1" d="M0,0H28V28H0Z" transform="translate(102 285)"/>
    <g id="Group_13184" data-name="Group 13184" transform="translate(102 285)">
      <g id="daily-needs-icn">
        <path id="Rectangle_91" data-name="Rectangle 91" class="cls-1" d="M0,0H28V28H0Z"/>
      </g>
      <path id="Rectangle_27" data-name="Rectangle 27" class="cls-1" d="M0,0H28V28H0Z"/>
    </g>
    <g id="color_line" data-name="color line" transform="translate(104.733 287.65)">
      <path id="Path_12500" data-name="Path 12500" class="cls-2" d="M47.14,41.05l-8.864-7.27-1.416,1.6,8.246,7.967a1.535,1.535,0,1,0,2.034-2.3Z" transform="translate(-25.872 -24.674)"/>
      <path id="Path_12501" data-name="Path 12501" class="cls-2" d="M32.519,5.887l5.623,4.98a.624.624,0,0,1,.07.874l-.781.882a.621.621,0,0,1-.877.036L30.932,7.679a.619.619,0,0,1-.07-.874l.781-.882A.621.621,0,0,1,32.519,5.887Z" transform="translate(-21.685 -5.564)"/>
      <path id="Path_12502" data-name="Path 12502" class="cls-3" d="M49.451,42.249a1.523,1.523,0,0,1-.386,1.014,1.47,1.47,0,0,1-.363.3,1.5,1.5,0,0,0,.14-.638,1.532,1.532,0,0,0-.574-1.2L39.41,34.459l.6-.679,8.864,7.27a1.528,1.528,0,0,1,.574,1.2Z" transform="translate(-27.609 -24.674)"/>
      <path id="Path_12503" data-name="Path 12503" class="cls-3" d="M38.993,11.744l-.781.883a.382.382,0,0,1-.038.035l.214-.242a.622.622,0,0,0-.073-.874l-5.621-4.98a.624.624,0,0,0-.832-.006l.564-.635A.622.622,0,0,1,33.3,5.89l5.621,4.98a.625.625,0,0,1,.07.874Z" transform="translate(-22.467 -5.565)"/>
      <path id="Path_12504" data-name="Path 12504" class="cls-2" d="M10.042,31.254l5.624,4.981a.621.621,0,0,1,.07.874l-.781.882a.621.621,0,0,1-.877.036L8.456,33.046a.619.619,0,0,1-.072-.874l.781-.882a.619.619,0,0,1,.877-.035Z" transform="translate(-6.375 -22.841)"/>
      <path id="Path_12505" data-name="Path 12505" class="cls-4" d="M14.169,38.011a.8.8,0,0,1-.533-.2L8.013,32.827a.781.781,0,0,1-.084-1.1l.781-.882a.781.781,0,0,1,1.1-.049l5.623,4.981a.781.781,0,0,1,.084,1.1l-.781.882a.75.75,0,0,1-.537.252Zm-4.891-7.1a.437.437,0,0,0-.33.146l-.781.882a.462.462,0,0,0,.057.65l5.623,4.98a.472.472,0,0,0,.34.123.433.433,0,0,0,.312-.145l.781-.882a.462.462,0,0,0-.057-.649L9.6,31.035A.486.486,0,0,0,9.279,30.912Z" transform="translate(-6.039 -22.503)"/>
      <path id="Path_12506" data-name="Path 12506" class="cls-5" d="M3.529,65.962h10.18a.63.63,0,0,1,.63.63v1.335H2.9V66.592a.63.63,0,0,1,.63-.63Z" transform="translate(-2.741 -45.595)"/>
      <path id="Path_12507" data-name="Path 12507" class="cls-4" d="M14,67.747H2.559a.159.159,0,0,1-.159-.159V66.252a.79.79,0,0,1,.789-.789H13.367a.79.79,0,0,1,.789.789v1.335a.159.159,0,0,1-.159.159ZM2.718,67.428H13.838V66.252a.471.471,0,0,0-.471-.47H3.189a.471.471,0,0,0-.47.47Z" transform="translate(-2.4 -45.255)"/>
      <path id="Path_12508" data-name="Path 12508" class="cls-5" d="M7.463,56.079h7.16a1,1,0,0,1,1,1v2.148H6.46V57.082a1,1,0,0,1,1-1Z" transform="translate(-5.165 -38.863)"/>
      <path id="Path_12509" data-name="Path 12509" class="cls-3" d="M30.625,56.079H29.478c.772,0,1.4.449,1.4,1v2.148h1.147V57.082c0-.554-.626-1-1.4-1Z" transform="translate(-21.562 -38.863)"/>
      <g id="Group_14413" data-name="Group 14413" transform="translate(8.867 0)">
        <path id="Path_12514" data-name="Path 12514" class="cls-4" d="M45.836,43.6a1.677,1.677,0,0,1-1.181-.482l-8.246-7.966a.159.159,0,0,1-.009-.22l1.416-1.6a.159.159,0,0,1,.22-.018l8.862,7.27a1.694,1.694,0,0,1-1,3.013h-.063Zm-9.1-8.571,8.136,7.86A1.375,1.375,0,1,0,46.7,40.833l-8.744-7.174Z" transform="translate(-34.399 -24.333)"/>
        <path id="Path_12515" data-name="Path 12515" class="cls-4" d="M36.637,12.641a.8.8,0,0,1-.533-.2l-5.623-4.98a.8.8,0,0,1-.271-.536.751.751,0,0,1,.186-.563l.781-.882a.781.781,0,0,1,1.1-.049l5.623,4.98a.781.781,0,0,1,.084,1.1l-.78.883a.749.749,0,0,1-.538.252Zm-4.89-7.1a.437.437,0,0,0-.33.145l-.781.882a.434.434,0,0,0-.107.326.482.482,0,0,0,.164.323l5.623,4.98a.478.478,0,0,0,.34.123.433.433,0,0,0,.312-.145l.781-.882a.467.467,0,0,0-.057-.649l-5.623-4.98a.486.486,0,0,0-.322-.123Z" transform="translate(-30.208 -5.222)"/>
      </g>
      <path id="Path_12516" data-name="Path 12516" class="cls-2" d="M0,0H8.413V7.028H0Z" transform="translate(3.849 8.569) rotate(-48.485)"/>
      <path id="Path_12517" data-name="Path 12517" class="cls-4" d="M19.385,23.131a.159.159,0,0,1-.106-.04l-5.26-4.66a.159.159,0,0,1-.014-.225l5.58-6.3a.159.159,0,0,1,.11-.053.156.156,0,0,1,.115.04l5.261,4.66a.159.159,0,0,1,.014.225l-5.58,6.3a.159.159,0,0,1-.11.053ZM14.35,18.3l5.022,4.449,5.367-6.058-5.023-4.449Z" transform="translate(-10.278 -9.74)"/>
      <path id="Path_12518" data-name="Path 12518" class="cls-4" d="M15.285,59.05H6.118a.159.159,0,0,1-.159-.159V56.743A1.164,1.164,0,0,1,7.122,55.58h7.16a1.164,1.164,0,0,1,1.163,1.163v2.148A.159.159,0,0,1,15.285,59.05Zm-9.007-.319h8.848V56.743a.845.845,0,0,0-.844-.844H7.122a.845.845,0,0,0-.844.844Z" transform="translate(-4.824 -38.523)"/>
    </g>
  </g>
</svg>
