<svg xmlns="http://www.w3.org/2000/svg" width="28" height="28" viewBox="0 0 28 28">
    <defs>
        <style>
            .cls-3{fill:#26a69a}.cls-4{fill:#82b1ff}.cls-5{fill:#448aff}.cls-6{fill:#fdd8a8}.cls-7{fill:#ffc477}.cls-8{fill:#b0bec5}.cls-10{fill:#90a4ae}.cls-12{fill:#fff}
        </style>
    </defs>
    <g id="Masseur" transform="translate(-26 -169)">
        <path id="Rectangle_91" fill="none" d="M0 0h28v28H0z" transform="translate(26 169)"/>
        <g id="massage" transform="translate(28 170.287)">
            <path id="Rectangle_16184" fill="#80cbc4" d="M0 0H23.953V1.928H0z" transform="translate(0 17.323)"/>
            <g id="Group_16389" transform="translate(4.117 17.323)">
                <path id="Path_17397" d="M362.6 354.857v-.519h-7.3v1.928h7.3v-.221c-.046-.054-.094-.108-.145-.159a2.58 2.58 0 0 0-.633-.465 2.352 2.352 0 0 0 .778-.564z" class="cls-3" transform="translate(-342.768 -354.338)"/>
                <path id="Rectangle_16185" d="M0 0H7.672V1.928H0z" class="cls-3"/>
            </g>
            <path id="Path_17398" d="M206.377 102.9a1.637 1.637 0 0 0-1.438-.854h-1.262v.655a1.17 1.17 0 1 1-2.339 0v-.655h-1.264a1.638 1.638 0 0 0-1.438.854l-1.214 2.229 1.244.7 1.011-1.726h.2l.552 3.181v3.415h3.971v-3.415l.705-3.181h.184l1.047 1.732 1.254-.707z" class="cls-4" transform="translate(-188.169 -96.554)"/>
            <path id="Path_17399" d="M265.466 218.41l-1.863 1.863-.031.033-.031-.033-2.05-2.05v3.209h3.977v-3.022z" class="cls-5" transform="translate(-249.232 -207.281)"/>
            <path id="Path_17400" d="M23.146 281.609a1.633 1.633 0 0 1 .48 1.158h-5.1a.935.935 0 0 1-.936-.936V279.4H0v-2.06h5.053a2.861 2.861 0 0 1 3.331-1.527l1.487.4h7.981a1.428 1.428 0 0 1 1.376 1.426h1.123l.515-.7h1.357a1.4 1.4 0 1 1 0 2.807h-1.358l-.515-.7h-1.122v2.082h2.76a1.633 1.633 0 0 1 1.158.481z" class="cls-6" transform="translate(0 -262.076)"/>
            <g id="Group_16390" transform="translate(0 13.637)">
                <path id="Path_17401" d="M11.789 277.18l.181.181a1.677 1.677 0 0 0 1.174.5 1.63 1.63 0 0 0 1.163-.48l.031-.033.031.033a1.636 1.636 0 0 0 2.316 0l1.166-1.166h-7.98l-1.487-.4a2.861 2.861 0 0 0-3.331 1.527h-.936v1.123H0v.936h17.591a.936.936 0 0 0-.936-.936h-4.866z" class="cls-7" transform="translate(0 -275.712)"/>
                <path id="Path_17402" d="M436.023 322.5h-1.357l-.515-.421v.621l.515.7h1.357a1.4 1.4 0 0 0 1.317-1.889 1.581 1.581 0 0 1-1.317.989z" class="cls-7" transform="translate(-413.801 -319.369)"/>
            </g>
            <path id="Path_17403" d="M277.137 14.455a1.17 1.17 0 0 0 1.17-1.17v-.655h-.479v-.93l.7-.515V9.637a1.4 1.4 0 1 0-2.807 0v1.543l.7.515v.936h-.457v.655a1.17 1.17 0 0 0 1.173 1.169z" class="cls-6" transform="translate(-262.798 -7.134)"/>
            <g id="Group_16391" transform="translate(1.957 19.251)">
                <path id="Rectangle_16186" d="M0 0H1.404V5.427H0z" class="cls-8"/>
                <path id="Rectangle_16187" d="M0 0H1.404V3.987H0z" class="cls-8" transform="translate(18.066 1.44)"/>
            </g>
            <path id="Path_17404" fill="#f8bbd0" d="M112.609 276.215l-1.487-.4a2.861 2.861 0 0 0-3.331 1.527v6.139h5.8v-7.262z" transform="translate(-102.737 -262.074)"/>
            <g id="Group_16392" transform="translate(8.314 8.58)">
                <path id="Path_17405" d="M177.364 169.559l4.34 4.339a.7.7 0 0 0 .992 0 .7.7 0 0 0 0-.992l-3.6-3.6.452-.773-1.244-.7z" class="cls-6" transform="translate(-177.364 -167.832)"/>
                <path id="Path_17406" d="M320.9 167.839l-1.254.707.463.767-3.6 3.6a.7.7 0 0 0 0 .992.7.7 0 0 0 .992 0l4.34-4.339z" class="cls-6" transform="translate(-309.792 -167.839)"/>
            </g>
            <g id="Group_16393" transform="translate(1.957 19.251)">
                <path id="Rectangle_16188" d="M0 0H1.404V0.936H0z" class="cls-10" transform="translate(18.066 1.44)"/>
                <path id="Rectangle_16189" d="M0 0H1.404V0.936H0z" class="cls-10"/>
            </g>
            <path id="Path_17407" d="M282.122 102.846a1.17 1.17 0 0 1-1.108-.8h-.061v.655a1.17 1.17 0 0 0 2.339 0v-.655h-.062a1.17 1.17 0 0 1-1.108.8z" class="cls-7" transform="translate(-267.782 -96.554)"/>
            <path id="Rectangle_16190" d="M0 0H3.977V5.427H0z" class="cls-4" transform="translate(12.257 19.251)"/>
            <path id="Rectangle_16191" d="M0 0H3.977V0.936H0z" class="cls-5" transform="translate(12.257 19.251)"/>
            <path id="Path_17408" fill="#333a60" d="M24 18.9h-1.146a1.98 1.98 0 0 0-.865-.2h-2.41v-1.38h.594l.515.7h1.535a1.754 1.754 0 0 0 0-3.509h-1.535l-.515.7h-.629A1.781 1.781 0 0 0 17.8 13.79h-.424l3.424-3.42-2.283-4.187a1.987 1.987 0 0 0-1.746-1.037h-1.39v-.407l.7-.515V2.5a1.754 1.754 0 0 0-3.509 0v1.724l.7.515v.407h-1.366a1.987 1.987 0 0 0-1.746 1.037L7.88 10.37l3.42 3.42H9.918l-1.442-.39a3.211 3.211 0 0 0-3.636 1.513H0v.7h4.7v1.357H0v.7h4.7v1.23H0v.7h1.606v5.076h.7V19.6h.7v5.076h.7V19.6H4.7v2.152h6.5V19.6h.7v5.076h.7V19.6h1.263v5.076h.7V19.6h1.31v5.076h.7V19.6h.655v.153a1.288 1.288 0 0 0 1.287 1.287h1.146v3.636h.7v-3.634h.7v3.636h.7v-3.636h2.2v-.351a1.975 1.975 0 0 0-.324-1.089H24zm-8.223-4.5a.351.351 0 0 1-.5-.5l3.794-3.795-.418-.692.629-.355.645 1.184zM18.19 10l-1.605 1.605v-.831l.557-2.51zm-4.915-7.5a1.053 1.053 0 1 1 2.105 0v1.368l-.7.515v1.464h.479v.3a.819.819 0 0 1-1.637 0v-.3h.457V4.383l-.7-.515V2.5zM9.392 9.061l.623.351-.409.7L13.4 13.9a.351.351 0 0 1-.5.5l-4.153-4.156zm2.087-.76l.428 2.466v.652L10.486 10zM5.4 21.052v-5.7a2.509 2.509 0 0 1 2.889-1.271l1.532.416h.679v6.56zm5.8-2.152v-1.227h6.04V18.9zm7.322 1.44a.585.585 0 0 1-.585-.585v-2.783H11.2v-2.48h.8l.4.4a1.053 1.053 0 0 0 1.488-1.489l-1.28-1.283v-1.414L12 7.2h-.693l-.938 1.6-.642-.362 1.048-1.925a1.286 1.286 0 0 1 1.13-.671h.913v.3a1.52 1.52 0 0 0 3.041 0v-.3h.911a1.286 1.286 0 0 1 1.13.671l1.05 1.926-.656.37-.973-1.609h-.663l-.775 3.5v1.609l-1.1 1.1a1.053 1.053 0 0 0 .744 1.8 1.046 1.046 0 0 0 .744-.308l.4-.4H17.8a1.077 1.077 0 0 1 1.076 1.076v.351h1.652l.515-.7h1.179a1.053 1.053 0 1 1 0 2.105h-1.179l-.515-.7h-1.651V19.4h3.111a1.288 1.288 0 0 1 1.238.936h-4.7z"/>
            <g id="Group_16394" transform="translate(6.105 8.28)">
                <path id="Path_17409" d="M130.947 320.545h-.7v-.7h.7zm0-1.4h-.7v-.7h.7zm0-1.4h-.7v-.7h.7zm0-1.4h-.7v-.7h.7z" class="cls-12" transform="translate(-130.245 -308.405)"/>
                <path id="Path_17410" d="M194.823 320.545h-.7v-.7h.7zm0-1.4h-.7v-.7h.7zm0-1.4h-.7v-.7h.7zm0-1.4h-.7v-.7h.7z" class="cls-12" transform="translate(-191.127 -308.405)"/>
                <path id="Rectangle_16192" d="M0 0H0.702V0.702H0z" class="cls-12" transform="translate(7.766)"/>
                <path id="Rectangle_16193" d="M0 0H0.702V0.702H0z" class="cls-12" transform="translate(7.766 1.673)"/>
                <path id="Rectangle_16194" d="M0 0H0.702V0.702H0z" class="cls-12" transform="translate(7.766 3.345)"/>
            </g>
        </g>
    </g>
</svg>
