<svg xmlns="http://www.w3.org/2000/svg" width="28" height="28" viewBox="0 0 28 28">
    <defs>
        <style>
            .cls-1{fill:none}.cls-4{fill:#fed2a4}.cls-5{fill:#ececec}.cls-7{fill:#b6c1ce}.cls-8{fill:#323c6b}
        </style>
    </defs>
    <g id="Nurse_Bureaus" transform="translate(-11 -826)">
        <path id="Rectangle_91" d="M0 0h28v28H0z" class="cls-1" transform="translate(11 826)"/>
        <path id="Rectangle_91-2" d="M0 0h28v28H0z" class="cls-1" transform="translate(11 826)"/>
        <g id="nurse" transform="translate(-22.168 829)">
            <path id="Path_14569" fill="#fcd770" d="M51.951 70.986a3.63 3.63 0 0 1-3.521-2.749l-.021-.085a3.542 3.542 0 0 0 3.543-3.543v-3.188a5.289 5.289 0 0 1 1.063-3.189l1.063-1.417h6.377l1.063 1.417a5.289 5.289 0 0 1 1.063 3.189v3.189a3.542 3.542 0 0 0 3.543 3.543l-.021.085a3.63 3.63 0 0 1-3.521 2.749H51.951z" transform="translate(-9.787 -54.3)"/>
            <path id="Path_14570" fill="#ffc729" d="M253.722 64.61v-3.189a5.289 5.289 0 0 0-1.063-3.189l-1.059-1.416h-2.743a8.347 8.347 0 0 1 3.1 6.022c0 3.9-3.543 6.377-3.543 6.377v1.771h5.314a3.63 3.63 0 0 0 3.521-2.749l.021-.085a3.542 3.542 0 0 1-3.548-3.542z" transform="translate(-200.93 -54.3)"/>
            <path id="Path_14571" d="M160.408 162.233v2.48a3.9 3.9 0 0 0 3.9 3.9 3.9 3.9 0 0 0 3.9-3.9v-2.48h-1.063a3.543 3.543 0 0 1-2.834-1.417 3.543 3.543 0 0 1-2.834 1.417z" class="cls-4" transform="translate(-116.827 -153.695)"/>
            <path id="Path_14572" d="M82.327 352.816l2.867.956a2.833 2.833 0 0 1 1.812 1.855l.994 3.211H72.408l.988-3.211a2.834 2.834 0 0 1 1.812-1.855l2.868-.956z" class="cls-5" transform="translate(-32.724 -337.193)"/>
            <g id="Group_15166" transform="translate(42.164 9.247)">
                <path id="Path_14573" d="M200.408 312.816v1.771l2.126 1.413 2.126-1.417v-1.771z" class="cls-4" transform="translate(-197.22 -308.211)"/>
                <path id="Path_14574" d="M129.825 211.65a1.417 1.417 0 0 1-1.417-1.417 1.417 1.417 0 0 1 1.417-1.417h7.794a1.417 1.417 0 0 1 1.417 1.417 1.417 1.417 0 0 1-1.417 1.417h-7.794z" class="cls-4" transform="translate(-128.408 -208.816)"/>
            </g>
            <path id="Path_14575" fill="#eabd8c" d="M243.951 192.816v2.48a3.9 3.9 0 0 1-3.543 3.879c.117.011.235.018.354.018a3.9 3.9 0 0 0 3.9-3.9v-2.48z" transform="translate(-193.284 -184.278)"/>
            <path id="Path_14576" d="M145.471 13.776a9.211 9.211 0 0 1 7.085 0l1.063-2.834-4.605-2.126-4.605 2.126z" class="cls-5" transform="translate(-101.535 -8.426)"/>
            <g id="Group_15167" transform="translate(45.022 15.623)">
                <path id="Path_14577" d="M250.179 356l.684-3.078-.33-.11-2.126 1.417z" class="cls-7" transform="translate(-245.953 -352.816)"/>
                <path id="Path_14578" d="M193.644 356l1.771-1.771-2.126-1.417-.33.11z" class="cls-7" transform="translate(-192.96 -352.816)"/>
                <path id="Path_14579" d="M299.911 358.838h2.165l-.988-3.211a2.834 2.834 0 0 0-1.812-1.855l-2.868-.956 2.774 2.466a1.416 1.416 0 0 1 .469.92z" class="cls-7" transform="translate(-291.827 -352.816)"/>
            </g>
            <path id="Path_14580" d="M56.657 14.023l.131-.525h-.453a3.192 3.192 0 0 1-3.188-3.188V7.121a5.619 5.619 0 0 0-1.134-3.4l.521-1.389L47.478 0l-5.053 2.332.523 1.391a5.619 5.619 0 0 0-1.134 3.4v3.187a3.192 3.192 0 0 1-3.193 3.19h-.453l.131.525a3.976 3.976 0 0 0 2.927 2.9 3.185 3.185 0 0 0-.892 1.4L39.2 22h16.551l-1.129-3.67a3.182 3.182 0 0 0-.892-1.4 3.976 3.976 0 0 0 2.927-2.907zM47.478.781L51.636 2.7l-.808 2.156a8.5 8.5 0 0 0-3.349-.569 8.508 8.508 0 0 0-3.349.569L43.32 2.7zm-4.227 3.748l.509 1.356.369-.239A6.674 6.674 0 0 1 47.478 5a6.681 6.681 0 0 1 3.346.649l.372.248.51-1.361a4.913 4.913 0 0 1 .732 2.59v2.13a1.754 1.754 0 0 0-.709-.327v-.745h-1.417a3.2 3.2 0 0 1-2.551-1.275l-.283-.378-.283.378a3.2 3.2 0 0 1-2.551 1.275h-1.417v.744a1.759 1.759 0 0 0-.709.327V7.121a4.91 4.91 0 0 1 .733-2.592zm8.478 6.489V9.666a1.056 1.056 0 0 1-.057 2.013 4.238 4.238 0 0 0 .057-.661zM46.922 17.1L45.9 18.119l-.512-2.047zm2.647-1.023l-.512 2.047-1.023-1.024zm-.32-.638l-1.771 1.181-1.771-1.181v-.556a4.2 4.2 0 0 0 3.543 0zm-1.771-.873a3.547 3.547 0 0 1-3.543-3.543v-2.13h.709a3.919 3.919 0 0 0 2.834-1.223 3.919 3.919 0 0 0 2.834 1.223h.709v2.126a3.547 3.547 0 0 1-3.543 3.542zm-4.194-2.882a1.056 1.056 0 0 1-.057-2.013v1.352a4.238 4.238 0 0 0 .056.656zm-4.2 2.5a3.906 3.906 0 0 0 3.138-2.391 1.758 1.758 0 0 0 1.247.636A4.262 4.262 0 0 0 45 14.464v.9l-2.625.875c-.075.025-.147.058-.22.088a3.269 3.269 0 0 1-3.069-2.148zm14.859 4.36l.847 2.753H52.4l-.316-2.524-.7.088.3 2.436h-8.41l.3-2.436-.7-.088-.316 2.524h-2.4l.847-2.753a2.484 2.484 0 0 1 1.595-1.629l2.1-.7.822 3.288 1.963-1.963 1.956 1.96.822-3.288 2.1.7a2.484 2.484 0 0 1 1.582 1.627zM52.8 16.332c-.073-.03-.144-.063-.22-.088l-2.625-.875v-.9a4.265 4.265 0 0 0 1.527-2.04 1.758 1.758 0 0 0 1.247-.636 3.906 3.906 0 0 0 3.138 2.391 3.27 3.27 0 0 1-3.067 2.148z" class="cls-8"/>
            <path id="Path_14581" d="M225.117 34.942h.709v-.709h.709v-.709h-.709v-.709h-.709v.709h-.708v.709h.708z" class="cls-8" transform="translate(-177.993 -31.363)"/>
        </g>
    </g>
</svg>
