<svg xmlns="http://www.w3.org/2000/svg" width="28" height="28" viewBox="0 0 28 28">
    <defs>
        <style>
            .cls-2{fill:#eae9e4}.cls-4{fill:#dcdbd6}.cls-6{fill:#aeadaa}.cls-8{fill:#333a60}
        </style>
    </defs>
    <g id="Movers_for_Automobile" transform="translate(-40 -1765)">
        <path id="Rectangle_91" fill="none" d="M0 0h28v28H0z" transform="translate(40 1765)"/>
        <g id="Group_15110" transform="translate(5.5 22)">
            <g id="filled_outline" transform="translate(19.5 1646)">
                <g id="Group_15099" transform="translate(19.033 115.7)">
                    <circle id="Ellipse_946" cx="1.3" cy="1.3" r="1.3" class="cls-2" transform="translate(14.3)"/>
                    <circle id="Ellipse_947" cx="1.3" cy="1.3" r="1.3" class="cls-2"/>
                    <path id="Path_13991" d="M296 320l.867 1.3h5.2l.867-1.3z" class="cls-2" transform="translate(-283.867 -320)"/>
                </g>
                <path id="Path_13992" fill="#f3be5f" d="M0 0h18.2v11.267H0z" transform="rotate(180 20.783 57.85)"/>
                <path id="Path_13993" d="M28.333 226.492V224h-1.971a1.083 1.083 0 0 0-.941.546L24 227.033h3.792a.542.542 0 0 0 .541-.541z" class="cls-4" transform="translate(-7.567 -113.5)"/>
                <path id="Path_13994" d="M44.333 226.492V224h-1.971a1.083 1.083 0 0 0-.941.546L40 227.033h3.792a.542.542 0 0 0 .541-.541z" class="cls-2" transform="translate(-22.7 -113.5)"/>
                <path id="Path_13995" fill="#007af6" d="M28.333 224v2.492a.542.542 0 0 1-.542.542H24v3.466h2.6l1.3-1.3h3.033V224z" transform="translate(-7.567 -113.5)"/>
                <path id="Path_13996" d="M0 0h3.9v1.733H0z" class="cls-4" transform="rotate(180 15.366 58.717)"/>
                <path id="Path_13997" d="M0 0h3.9v1.733H0z" class="cls-2" transform="rotate(180 13.416 58.717)"/>
                <circle id="Ellipse_948" cx="1.3" cy="1.3" r="1.3" class="cls-2" transform="translate(33.333 115.7)"/>
                <path id="Path_13998" d="M329.733 315.467a1.733 1.733 0 1 1 1.733-1.733 1.733 1.733 0 0 1-1.733 1.733zm0-2.6a.867.867 0 1 0 .867.867.867.867 0 0 0-.867-.867z" class="cls-6" transform="translate(-295.1 -196.733)"/>
                <circle id="Ellipse_949" cx="1.3" cy="1.3" r="1.3" class="cls-2" transform="translate(19.033 115.7)"/>
                <path id="Path_13999" d="M65.733 315.467a1.733 1.733 0 1 1 1.733-1.733 1.733 1.733 0 0 1-1.733 1.733zm0-2.6a.867.867 0 1 0 .867.867.867.867 0 0 0-.867-.867z" class="cls-6" transform="translate(-45.4 -196.733)"/>
                <path id="Path_14000" d="M0 0h2.6v1.733H0z" class="cls-4" transform="rotate(180 20.783 58.717)"/>
                <path id="Path_14001" fill="#ee9d0d" d="M0 0h7.619v6.7H0z" transform="rotate(180 16.45 56.709)"/>
                <path id="Path_14003" d="M16.433 117.433h2.222a1.733 1.733 0 1 0 3.179-1.3h.666v1.3a.433.433 0 0 0 .433.433h7.8a.433.433 0 0 0 .433-.433v-.952l.506.759a.433.433 0 0 0 .361.193h.922a1.733 1.733 0 0 0 3.357 0h.922a.433.433 0 0 0 .361-.193l.738-1.107h.2v1.3a.433.433 0 0 0 .433.433h2.6a.433.433 0 0 0 .433-.433v-13a.433.433 0 0 0-.433-.433h-18.2a.433.433 0 0 0-.433.433v5.633H18.8a1.52 1.52 0 0 0-1.317.764s-1.471 2.624-1.473 2.637S16 117 16 117a.433.433 0 0 0 .433.433zM21.2 117a.867.867 0 1 1-.867-.867.867.867 0 0 1 .867.867zm2.167-.867H26.4V117h-3.033zM30.3 117h-3.033v-.867H30.3zm1.676-.867h1.157a1.722 1.722 0 0 0-.178.433h-.69zm2.657 1.733A.867.867 0 1 1 35.5 117a.867.867 0 0 1-.867.867zm2.368-1.3h-.69a1.722 1.722 0 0 0-.178-.433h1.157zm4.132.433H39.4v-.867h1.733zM23.8 104.867h17.333v10.4H23.8zm-.867 10.4h-2.6a1.736 1.736 0 0 0-1.678 1.3h-1.788v-.867h.433a.433.433 0 0 0 0-.867h-.433v-.867h3.358a.976.976 0 0 0 .975-.975v-2.058h1.733zm-4.7-4.006a.651.651 0 0 1 .564-.328h1.538v2.058a.108.108 0 0 1-.108.108H17.18z" class="cls-8"/>
                <path id="Path_14006" d="M368.433 184.867h1.3a.433.433 0 1 0 0-.867h-1.3a.433.433 0 1 0 0 .867z" class="cls-8" transform="translate(-332.933 -75.667)"/>
                <path id="Path_14007" d="M368.433 216.867h3.033a.433.433 0 1 0 0-.867h-3.033a.433.433 0 1 0 0 .867z" class="cls-8" transform="translate(-332.933 -105.933)"/>
                <path id="Path_14008" d="M368.433 248.867h1.3a.433.433 0 1 0 0-.867h-1.3a.433.433 0 1 0 0 .867z" class="cls-8" transform="translate(-332.933 -136.2)"/>
            </g>
            <g id="car_1_" transform="translate(46 1701)">
                <g id="Group_15101" transform="translate(0 53)">
                    <g id="Group_15100">
                        <path id="Path_14009" d="M4.809 54.437l-.109-.115-.382-1.031A.449.449 0 0 0 3.9 53H1.168a.447.447 0 0 0-.418.291l-.377 1.018-.157.145a.614.614 0 0 0-.216.467v1.5a.447.447 0 0 0 .447.444h.282a.447.447 0 0 0 .447-.444v-.218h2.65v.218a.447.447 0 0 0 .447.444h.282A.447.447 0 0 0 5 56.423v-1.542a.62.62 0 0 0-.191-.444zM.951 53.363a.231.231 0 0 1 .217-.15H3.9a.233.233 0 0 1 .217.15l.333.9H4.2a.733.733 0 0 0-1.45 0H.618zm3.033.9H2.968a.519.519 0 0 1 1.016 0zm-3.022 2.16a.232.232 0 0 1-.233.231H.447a.232.232 0 0 1-.233-.231v-.28a.434.434 0 0 0 .233.062h.515zm3.825 0a.232.232 0 0 1-.233.231h-.283a.233.233 0 0 1-.233-.231v-.218h.515a.434.434 0 0 0 .233-.062v.28zm-.233-.432H.447a.23.23 0 0 1-.233-.229v-.842a.4.4 0 0 1 .142-.306l.145-.137h4.05l.1.11.005.005a.4.4 0 0 1 .126.292v.881a.231.231 0 0 1-.229.226z" class="cls-8" transform="translate(0 -53)"/>
                    </g>
                </g>
                <g id="Group_15103" transform="translate(.502 54.902)">
                    <g id="Group_15102">
                        <path id="Path_14010" d="M47.908 231h-.8a.107.107 0 0 0-.107.107v.556a.107.107 0 0 0 .107.107h.8a.107.107 0 0 0 .107-.107v-.556a.107.107 0 0 0-.107-.107zm-.107.556h-.588v-.342h.587z" class="cls-8" transform="translate(-47 -231)"/>
                    </g>
                </g>
                <g id="Group_15105" transform="translate(3.483 54.902)">
                    <g id="Group_15104">
                        <path id="Path_14011" d="M326.908 231h-.8a.107.107 0 0 0-.107.107v.556a.107.107 0 0 0 .107.107h.8a.107.107 0 0 0 .107-.107v-.556a.107.107 0 0 0-.107-.107zm-.107.556h-.588v-.342h.588z" class="cls-8" transform="translate(-326 -231)"/>
                    </g>
                </g>
                <g id="Group_15107" transform="translate(1.877 55.35)">
                    <g id="Group_15106">
                        <path id="Path_14012" d="M176.839 273h-1.032a.107.107 0 0 0 0 .214h1.032a.107.107 0 1 0 0-.214z" class="cls-8" transform="translate(-175.7 -273)"/>
                    </g>
                </g>
                <g id="Group_15109" transform="translate(1.877 55.019)">
                    <g id="Group_15108">
                        <path id="Path_14013" d="M176.839 242h-1.032a.107.107 0 1 0 0 .214h1.032a.107.107 0 1 0 0-.214z" class="cls-8" transform="translate(-175.7 -242)"/>
                    </g>
                </g>
            </g>
        </g>
    </g>
</svg>
