<svg xmlns="http://www.w3.org/2000/svg" width="28" height="28" viewBox="0 0 28 28">
    <defs>
        <style>
            .cls-1{fill:none}.cls-2{fill:#f7f7f5}.cls-4,.cls-5{fill:#3c3b5c}.cls-5{stroke:#3c3b5c;stroke-width:.1px}.cls-7{fill:#efa266}
        </style>
    </defs>
    <g id="Pest_Control" transform="translate(-32 -134)">
        <path id="Rectangle_91" d="M0 0h28v28H0z" class="cls-1" transform="translate(32 134)"/>
        <g id="dd" transform="translate(32 134)">
            <path id="Rectangle_91-2" d="M0 0h28v28H0z" class="cls-1"/>
            <g id="pest-control-icon" transform="translate(-23.92 -20.939)">
                <path id="Path_11893" d="M66.831 60.96l-.057-.059a2.144 2.144 0 0 0-2.963.06 2.122 2.122 0 0 0-.056 2.95l.059.056" class="cls-2" transform="translate(-28.854 -28.991)"/>
                <path id="Path_11907" fill="#e5e5e5" d="M64.609 67.07a1.784 1.784 0 0 1 .02-1.6s-.032.661.453.735a5.047 5.047 0 0 0-.473.865z" transform="translate(-29.791 -32.867)"/>
                <path id="Path_11894" d="M62.523 63.04a.362.362 0 0 1-.246-.1l-.069-.061a2.484 2.484 0 0 1 0-3.524 2.51 2.51 0 0 1 3.539 0l.066.069a.359.359 0 0 1-.02.51.363.363 0 0 1-.512-.02l-.047-.049a1.781 1.781 0 0 0-2.512 0 1.763 1.763 0 0 0 0 2.5l.049.046a.36.36 0 0 1-.246.625z" class="cls-4" transform="translate(-27.562 -27.702)"/>
                <path id="Path_11895" d="M67.1 69.413l-1.213-2.5.236-2.119 1.4-1.629 2.089-.659 2.31.485 1.483 1.627-2.649 2.437-.649.61-1.619.522z" class="cls-2" transform="translate(-30.892 -30.632)"/>
                <path id="Path_11896" d="M65.657 65.3a.362.362 0 0 1-.246-.1l-.32-.314-.015-.015a4.293 4.293 0 0 1 .126-5.883 4.338 4.338 0 0 1 5.9-.266l.02.02.138.137 1.3-1.186a.362.362 0 0 1 .209-.093l3.818-.37.787-.573a.362.362 0 1 1 .428.583l-.868.632a.363.363 0 0 1-.18.069l-3.8.365-1.476 1.337a.363.363 0 0 1-.492-.012l-.369-.372a3.61 3.61 0 0 0-4.917.219 3.573 3.573 0 0 0-.1 4.9l.312.306a.36.36 0 0 1-.246.617z" class="cls-5" transform="translate(-29.446 -26.159)"/>
                <path id="Path_11897" d="M80.326 42.032h-.042a.36.36 0 0 1-.317-.4l.315-2.695-2.273-2.663a.554.554 0 0 1-.123-.473l.207-1.026a.363.363 0 0 1 .711.142l-.189.948 2.266 2.65a.559.559 0 0 1 .13.426l-.325 2.773a.361.361 0 0 1-.359.316z" class="cls-5" transform="translate(-39.928 -9.473)"/>
                <path id="Path_11898" d="M40.978 78.921a.565.565 0 0 1-.369-.137l-2.657-2.254-.952.189a.361.361 0 1 1-.143-.708l1.031-.206a.56.56 0 0 1 .475.122l2.669 2.263 2.706-.311a.361.361 0 1 1 .084.718l-2.78.321z" class="cls-5" transform="translate(-8.781 -40.663)"/>
                <path id="Path_11899" d="M59.328 96.719a.36.36 0 0 1-.293-.573l.576-.786.371-3.8a.359.359 0 0 1 .093-.208L61.5 89.8a.364.364 0 0 1 .513-.021.36.36 0 0 1 .021.511l-1.343 1.47-.369 3.78a.359.359 0 0 1-.069.179l-.635.865a.362.362 0 0 1-.29.135z" class="cls-5" transform="translate(-25.67 -51.15)"/>
                <path id="Path_11900" fill="#e97218" d="M70.82 73.558l1.78-1.773a.182.182 0 0 1 .123-.054l1.636-.047a.182.182 0 0 0 .177-.171l.079-1.668a.181.181 0 0 1 .054-.12L76.407 68c3.69 3.777 5.434 7.971 3.936 9.473s-5.68-.233-9.454-3.838z" transform="translate(-34.609 -34.778)"/>
                <path id="Path_11905" d="M73.5 88.1l-.654.634s5.542 5.186 8.472 3.868c.004-.002-3.843-.276-7.818-4.502z" class="cls-7" transform="translate(-36.14 -49.954)"/>
                <path id="Path_11906" d="M87.36 77.421l.081-1.641 5.359 5.933s.349.3-.037 1.075z" class="cls-7" transform="translate(-47.08 -40.652)"/>
                <path id="Path_11901" d="M77.222 76.753c-2.093 0-5.2-1.641-8.16-4.48l-.332-.321 2.034-2.031a.545.545 0 0 1 .369-.159l1.476-.042.071-1.5a.54.54 0 0 1 .155-.358l2-1.992.246.262c3.914 4.017 5.6 8.309 3.921 9.98a2.451 2.451 0 0 1-1.78.641zm-7.459-4.811c3.545 3.322 7.432 4.96 8.738 3.66s-.391-5.218-3.675-8.7L73.4 68.324l-.076 1.6a.545.545 0 0 1-.529.517l-1.565.044z" class="cls-5" transform="translate(-33.033 -33.169)"/>
                <path id="Path_11902" d="M90.466 87.93a.362.362 0 0 1-.246-.105l-5.855-5.83a.359.359 0 0 1 0-.51.363.363 0 0 1 .512 0l5.855 5.83a.36.36 0 0 1-.246.615z" class="cls-4" transform="translate(-44.742 -44.879)"/>
                <path id="Path_11903" d="M105.273 75.972h-.025l-1.628-.072a.362.362 0 0 1-.246-.105l-2.726-2.729-2.78.059a.36.36 0 1 1-.015-.72l2.932-.064a.363.363 0 0 1 .263.105L103.8 75.2l1.488.066a.36.36 0 1 1-.015.72z" class="cls-5" transform="translate(-54.725 -38.054)"/>
                <path id="Path_11904" d="M78.144 103.087a.361.361 0 0 1-.362-.345l-.066-1.482-2.75-2.739a.359.359 0 0 1-.106-.262l.064-2.92a.363.363 0 0 1 .726.015l-.062 2.766 2.75 2.729a.359.359 0 0 1 .106.245l.074 1.622a.361.361 0 0 1-.347.377z" class="cls-5" transform="translate(-37.655 -55.152)"/>
                <path id="Path_11908" d="M53.624 31.936a.362.362 0 0 1-.271-.12c-.16-.176-3.9-4.409-4.044-9.507a.362.362 0 0 1 .723-.02c.14 4.845 3.825 9 3.875 9.046a.36.36 0 0 1-.271.6z" class="cls-5" transform="translate(-18.95)"/>
                <path id="Path_11909" d="M34.6 50.977a.363.363 0 0 1-.246-.091c-.042-.037-4.226-3.709-9.085-3.846a.361.361 0 0 1-.352-.37.366.366 0 0 1 .371-.35c5.129.145 9.368 3.87 9.547 4.027a.36.36 0 0 1-.246.63z" class="cls-5" transform="translate(0 -18.964)"/>
            </g>
        </g>
    </g>
</svg>
