<svg xmlns="http://www.w3.org/2000/svg" width="28" height="28" viewBox="0 0 28 28">
    <defs>
        <style>
            .cls-2,.cls-3{fill:#00a1ce;fill-rule:evenodd}.cls-3{fill:#ffc84a}.cls-7{fill:#1e2e59}
        </style>
    </defs>
    <g id="Registration_Consultants" transform="translate(-26 -215)">
        <path id="Rectangle_91" fill="none" d="M0 0h28v28H0z" transform="translate(26 215)"/>
        <g id="Group_15079" transform="translate(-420.52 -115.718)">
            <path id="Path_14341" d="M449.878 336.55v17.36a1.3 1.3 0 0 0 1.3 1.295h13.7a1.3 1.3 0 0 0 1.3-1.295v-7.772l-1.944 1.73v4.684a.647.647 0 0 1-.644.643h-11.2a.644.644 0 0 1-.643-.643v-14.531a.645.645 0 0 1 .643-.644h3.12v-2.123h-4.334a1.3 1.3 0 0 0-1.3 1.3z" class="cls-2"/>
            <path id="Path_14342" d="M462.046 337.379l2.177 2.175v4.56l1.944-1.73v-5.834a1.3 1.3 0 0 0-1.3-1.3h-4.36v2.125h1.53z" class="cls-2"/>
            <path id="Path_14343" d="M455.505 337.378h5v-2.124H459.2a1.185 1.185 0 0 0-2.369 0h-1.321z" class="cls-3"/>
            <path id="Path_14344" fill="#f5f6f6" fill-rule="evenodd" d="M451.744 338.021v14.531a.644.644 0 0 0 .643.643h11.192a.646.646 0 0 0 .644-.643v-4.685l-2.385 2.121-3.019.809 1.156-2.9 4.249-3.78v-4.56h-1.534a.646.646 0 0 1-.644-.644v-1.535h-9.66a.645.645 0 0 0-.643.644z"/>
            <path id="Path_14345" fill="#aba9ad" fill-rule="evenodd" d="M462.046 338.91a.646.646 0 0 0 .644.644h1.533l-2.177-2.175z"/>
            <path id="Path_14346" d="M459.973 347.893l-1.156 2.9 3.019-.809-.932-1.048z" class="cls-3"/>
            <path id="Path_14347" fill="#f9da9b" fill-rule="evenodd" d="M459.974 347.894l.931 1.047 3.318-2.941 1.944-1.728 2.276-2.021-.937-1.053-1.338 1.19-1.944 1.73z"/>
            <path id="Path_14348" d="M460.906 348.94l.932 1.048 2.385-2.121 1.944-1.73 3.2-2.849-.926-1.041-2.276 2.021-1.944 1.732z" class="cls-3"/>
            <path id="Path_14381" d="M457.176 348.274h-3.4a.415.415 0 0 0-.288.135.419.419 0 0 0 .289.7h3.4a.418.418 0 0 0 0-.835z" class="cls-7"/>
            <path id="Path_14382" d="M459.216 346.566a.419.419 0 0 0-.4-.4h-5.041a.421.421 0 0 0-.288.137.418.418 0 0 0 .289.7h5.041a.419.419 0 0 0 .4-.437z" class="cls-7"/>
            <path id="Path_14383" d="M461.536 344.061h-7.76a.419.419 0 0 0 0 .836h7.76a.419.419 0 0 0 0-.836z" class="cls-7"/>
            <path id="Path_14384" d="M461.536 341.956h-7.76a.419.419 0 0 0 0 .836h7.76a.419.419 0 0 0 0-.836z" class="cls-7"/>
            <path id="Path_14385" d="M455.12 339.85h-1.344a.419.419 0 0 0 0 .836h1.344a.419.419 0 0 0 0-.836z" class="cls-7"/>
            <path id="Path_14349" fill="#e65358" fill-rule="evenodd" d="M321.445 402.389l.937 1.053.926 1.041.793-.7.032-.031a.874.874 0 0 0 .039-1.2l-.039-.043-.666-.75a.874.874 0 0 0-1.231-.072z" transform="translate(146.075 -61.199)"/>
            <path id="Path_14386" d="M470.49 341.115l-.11-.125h.005l-.6-.668a1.236 1.236 0 0 0-1.736-.1l-1.532 1.365v-5.033a1.66 1.66 0 0 0-1.653-1.654h-5.358l-.014-.056a1.54 1.54 0 0 0-1.9-1.067 1.549 1.549 0 0 0-1.069 1.068l-.014.055h-5.339a1.66 1.66 0 0 0-1.652 1.654v17.354a1.662 1.662 0 0 0 1.653 1.654h13.7a1.662 1.662 0 0 0 1.649-1.654V346.295l.019-.018 3.847-3.425a1.239 1.239 0 0 0 .104-1.737zm-9.618-5.5h4a.944.944 0 0 1 .937.938v5.674l-.026.022-1.2 1.07v-3.768a.358.358 0 0 0-.106-.252l-2.179-2.17a.367.367 0 0 0-.252-.106h-1.174zm-1.138 12.014a.484.484 0 0 0-.068.083l-.017.047-1.065 2.678h-4.81a.36.36 0 0 0 0 .717l5.143-.008 3.005-.809a.382.382 0 0 0 .078-.037l.055-.024.011-.011.05-.045 1.741-1.548v3.631l.011-.02v.265a.285.285 0 0 1-.283.283h-11.2a.286.286 0 0 1-.285-.283v-14.527a.29.29 0 0 1 .283-.286h9.3v1.174a1.008 1.008 0 0 0 1 1h1.173v4.041l-.024.022zm.375.958l1.075 1.209-.024.007-1.748.463.012-.028.67-1.669zm2.3-9.674v-.667l.954.953h-.669a.288.288 0 0 1-.294-.29zm-6.538-3.3h.959a.36.36 0 0 0 .358-.358.814.814 0 0 1 .277-.57.823.823 0 0 1 .546-.207h.052a.826.826 0 0 1 .773.775.361.361 0 0 0 .358.363h.961v1.409h-4.284zm9.942 18.3a.94.94 0 0 1-.937.936h-13.7a.941.941 0 0 1-.938-.936v-17.358a.943.943 0 0 1 .937-.938h3.974v1.408h-2.761a1.007 1.007 0 0 0-1 1v14.527a1.007 1.007 0 0 0 1 1h11.193a1.007 1.007 0 0 0 1-1v-4.527l.024-.022 1.2-1.07zm3-10.592l-6.937 6.166-.01-.012-.45-.5.012-.01 2.054-1.844.163-.146v-.031a.909.909 0 0 0-.5-.487l-.275.248-1.935 1.74-.01-.012-.446-.5.012-.01 6.982-6.211.009.012.454.506-.057.05-4.931 4.354a.734.734 0 0 0 .2.3 1.212 1.212 0 0 0 .3.208l.815-.719 4.145-3.661.011.012.44.5zm1.281-1.354a.508.508 0 0 1-.169.354l-.526.468-.05-.056-1.341-1.505.012-.011.519-.458a.52.52 0 0 1 .721.043l.706.79a.519.519 0 0 1 .128.361z" class="cls-7"/>
        </g>
    </g>
</svg>
