<svg xmlns="http://www.w3.org/2000/svg" width="28" height="28" viewBox="0 0 28 28">
    <defs>
        <clipPath id="vem8kbizya">
            <path d="M0-682.665h23.3v23.3H0z" transform="translate(0 682.665)"/>
        </clipPath>
    </defs>
    <g data-name="Scrap Dealers">
        <path data-name="Rectangle 91" d="M0 0h28v28H0z" style="fill:none"/>
        <g style="clip-path:url(#vem8kbizya)" transform="translate(2.352 2.352)">
            <path d="m-.95-23.925 2.02 3.5a.25.25 0 0 0 .341.092l.815-.47a.25.25 0 0 0 .092-.341L.3-24.645a.25.25 0 0 0-.341-.092l-.815.47a.25.25 0 0 0-.091.341" transform="translate(5.372 41.285)" style="fill:#91dafa"/>
            <path d="m-418.4-93.455-.93-1.978a.7.7 0 0 0-.821-.376l-2 .56-1.351-1.265a.9.9 0 0 0-.613-.242h-1.609a.9.9 0 0 0-.881.729l-.375 1.967h-2.854a.894.894 0 0 0-.735.384l-.9 1.3a.553.553 0 0 1-.361.23l-.689.119a.553.553 0 0 0-.451.451l-.211 1.213h16.381v-1.99a.7.7 0 0 0-.7-.7h-.261a.7.7 0 0 1-.633-.4" transform="translate(436.773 113.319)" style="fill:#f7f3f1"/>
            <path d="M-36.368-5.151a.9.9 0 0 1 .613.242l1.355 1.265.815-.228-1.3-1.219a.9.9 0 0 0-.613-.242h-1.609a.894.894 0 0 0-.54.182z" transform="translate(48.164 21.895)" style="fill:#ebe1dc"/>
            <path d="M-91.339-78.752h-.261a.7.7 0 0 1-.633-.4l-.93-1.978a.7.7 0 0 0-.821-.376l-.582.163a.7.7 0 0 1 .539.395l.93 1.979a.7.7 0 0 0 .633.4h.261a.7.7 0 0 1 .7.7v1.808h.865v-1.99a.7.7 0 0 0-.7-.7" transform="translate(110.608 99.018)" style="fill:#ebe1dc"/>
            <path d="M-102.547-200.8a.748.748 0 0 1-.382-.105.752.752 0 0 1-.264-1.03 3.073 3.073 0 0 0 .422-1.565 2.78 2.78 0 0 0-2.646-2.89.752.752 0 0 1-.752-.752.752.752 0 0 1 .752-.752 4.282 4.282 0 0 1 4.15 4.394 4.578 4.578 0 0 1-.631 2.331.752.752 0 0 1-.648.369" transform="translate(118.674 214.898)" style="fill:#e9a52d"/>
            <path d="M-36.21-200.8a.751.751 0 0 1-.648-.369 4.578 4.578 0 0 1-.631-2.331 4.282 4.282 0 0 1 4.15-4.394.752.752 0 0 1 .752.752.752.752 0 0 1-.752.752 2.779 2.779 0 0 0-2.646 2.89 3.072 3.072 0 0 0 .422 1.565.752.752 0 0 1-.264 1.03.748.748 0 0 1-.382.105" transform="translate(43.775 214.898)" style="fill:#e9a52d"/>
            <path d="M0-13.86v2.16a.49.49 0 0 0 .49.49h5.425a.49.49 0 0 0 .49-.49v-2.16a.49.49 0 0 0-.49-.49H.49a.49.49 0 0 0-.49.49" transform="translate(8.644 20.977)" style="fill:#f7f3f1"/>
            <path d="M-33.482 0h-1.183a.49.49 0 0 1 .49.49v2.161a.49.49 0 0 1-.49.49h1.183a.49.49 0 0 0 .49-.49V.49a.49.49 0 0 0-.49-.49" transform="translate(48.04 6.628)" style="fill:#ebe1dc"/>
            <path d="M-21.283-168.744a.752.752 0 0 1-.752-.752v-4.458a.752.752 0 0 1 .752-.752.752.752 0 0 1 .752.752v4.458a.752.752 0 0 1-.752.752" transform="translate(33.129 182.652)" style="fill:#e9a52d"/>
            <path d="M0-6.439V-.38h1.619v-6.059a.227.227 0 0 0-.228-.228H.228A.227.227 0 0 0 0-6.439" transform="translate(11.036 7.008)" style="fill:#91dafa"/>
            <path d="m-25.7-1.948-.839.839a.235.235 0 0 0 0 .332l2.476 2.477a.235.235 0 0 0 .332 0l.839-.839a.235.235 0 0 0 0-.332l-2.474-2.474a.235.235 0 0 0-.332 0" transform="translate(39.805 19.367)" style="fill:#a87c72"/>
            <path d="m-5.38-33.817 1.195-1.195 1.139 1.139-1.195 1.195a.235.235 0 0 1-.136.067l-.928.121a.235.235 0 0 1-.263-.263l.121-.928a.235.235 0 0 1 .067-.136" transform="translate(18.121 54.27)" style="fill:#9a695e"/>
            <path d="M-65.714 0h-1.271a.415.415 0 0 0-.36.208l-.635 1.1a.415.415 0 0 0 0 .415l.635 1.1a.415.415 0 0 0 .36.208h1.271a.415.415 0 0 0 .36-.208l.635-1.1a.416.416 0 0 0 0-.415l-.635-1.1a.415.415 0 0 0-.36-.208" transform="translate(75.759 18.75)" style="fill:#6dc17d"/>
            <path d="m-79.048-77.632-1.512-2.618a.25.25 0 0 0-.341-.092l-.815.47a.25.25 0 0 0-.091.341l1.53 2.65" transform="translate(86.229 96.89)" style="stroke:#333a60;stroke-linecap:round;stroke-linejoin:round;stroke-miterlimit:10;stroke-width:.9px;fill:none"/>
            <path d="M-49.634-97.15v-1.99a.7.7 0 0 0-.7-.7h-.261a.7.7 0 0 1-.633-.4l-.16-.342" transform="translate(69.603 120.105)" style="stroke:#333a60;stroke-linecap:round;stroke-linejoin:round;stroke-miterlimit:10;stroke-width:.9px;fill:none"/>
            <path d="m0-104.635.211-1.213a.553.553 0 0 1 .451-.451l.689-.119a.554.554 0 0 0 .361-.23l.9-1.3a.9.9 0 0 1 .735-.384h1.3" transform="translate(3.593 127.59)" style="stroke:#333a60;stroke-linecap:round;stroke-linejoin:round;stroke-miterlimit:10;stroke-width:.9px;fill:none"/>
            <path d="m0-13.7 1.636-.458a.7.7 0 0 1 .821.376l.091.193" transform="translate(14.988 31.667)" style="stroke:#333a60;stroke-linecap:round;stroke-linejoin:round;stroke-miterlimit:10;stroke-width:.9px;fill:none"/>
            <path d="m0-61.916.278-1.458a.9.9 0 0 1 .881-.729h1.609a.9.9 0 0 1 .613.242l.748.7" transform="translate(9.893 80.666)" style="stroke:#333a60;stroke-linecap:round;stroke-linejoin:round;stroke-miterlimit:10;stroke-width:.9px;fill:none"/>
            <path d="M0-52.028A3.009 3.009 0 0 1 .854-49.9a3.069 3.069 0 0 1-.422 1.565.752.752 0 0 0 .268 1.026.75.75 0 0 0 .382.105.752.752 0 0 0 .648-.369 4.577 4.577 0 0 0 .628-2.327A4.426 4.426 0 0 0 0-53.867" transform="translate(15.048 61.305)" style="stroke:#333a60;stroke-linecap:round;stroke-linejoin:round;stroke-miterlimit:10;stroke-width:.9px;fill:none"/>
            <path d="M-66.746-52.028A3.009 3.009 0 0 0-67.6-49.9a3.073 3.073 0 0 0 .421 1.565.752.752 0 0 1-.264 1.03.75.75 0 0 1-.382.105.752.752 0 0 1-.648-.369A4.577 4.577 0 0 1-69.1-49.9a4.425 4.425 0 0 1 2.358-3.963" transform="translate(75.39 61.305)" style="stroke:#333a60;stroke-linecap:round;stroke-linejoin:round;stroke-miterlimit:10;stroke-width:.9px;fill:none"/>
            <path d="M-111.911-88.91h1.961a.49.49 0 0 0 .49-.49v-2.162a.49.49 0 0 0-.49-.49h-5.425a.49.49 0 0 0-.49.49v2.162a.49.49 0 0 0 .49.49h1.961" transform="translate(124.509 98.68)" style="stroke:#333a60;stroke-linecap:round;stroke-linejoin:round;stroke-miterlimit:10;stroke-width:.9px;fill:none"/>
            <path d="M-21.283-168.744a.752.752 0 0 1-.752-.752v-4.458a.752.752 0 0 1 .752-.752.752.752 0 0 1 .752.752v4.458a.752.752 0 0 1-.752.752z" transform="translate(33.129 182.652)" style="stroke:#333a60;stroke-linecap:round;stroke-linejoin:round;stroke-miterlimit:10;stroke-width:.9px;fill:none"/>
            <path d="M-45.834-177.921v-6.059a.227.227 0 0 0-.228-.227h-1.164a.227.227 0 0 0-.228.227v1.515" transform="translate(58.489 184.549)" style="stroke:#333a60;stroke-linecap:round;stroke-linejoin:round;stroke-miterlimit:10;stroke-width:.9px;fill:none"/>
            <path d="M0 0v2.952" style="stroke:#333a60;stroke-linecap:round;stroke-linejoin:round;stroke-miterlimit:10;stroke-width:.9px;fill:none" transform="translate(11.036 3.676)"/>
            <path d="m-25.7-1.948-.839.839a.235.235 0 0 0 0 .332l2.476 2.477a.235.235 0 0 0 .332 0l.839-.839a.235.235 0 0 0 0-.332l-2.474-2.474a.235.235 0 0 0-.334-.003z" transform="translate(39.805 19.367)" style="stroke:#333a60;stroke-linecap:round;stroke-linejoin:round;stroke-miterlimit:10;stroke-width:.9px;fill:none"/>
            <path d="m-71.434-32.236-1.195 1.195a.235.235 0 0 1-.136.067l-.928.121a.235.235 0 0 1-.263-.263l.121-.928a.235.235 0 0 1 .067-.136l1.195-1.195" transform="translate(86.509 52.633)" style="stroke:#333a60;stroke-linecap:round;stroke-linejoin:round;stroke-miterlimit:10;stroke-width:.9px;fill:none"/>
            <path d="M-65.714 0h-1.271a.415.415 0 0 0-.36.208l-.635 1.1a.415.415 0 0 0 0 .415l.635 1.1a.415.415 0 0 0 .36.208h1.271a.415.415 0 0 0 .36-.208l.635-1.1a.416.416 0 0 0 0-.415l-.635-1.1a.415.415 0 0 0-.36-.208z" transform="translate(75.759 18.75)" style="stroke:#333a60;stroke-linecap:round;stroke-linejoin:round;stroke-miterlimit:10;stroke-width:.9px;fill:none"/>
            <path d="M0 0h18.668" style="stroke:#333a60;stroke-linecap:round;stroke-linejoin:round;stroke-miterlimit:10;stroke-width:.9px;fill:none" transform="translate(2.512 22.955)"/>
            <path d="M0 0a9.509 9.509 0 0 1 3.012 6.956 9.488 9.488 0 0 1-1.43 5.024" style="stroke:#333a60;stroke-linecap:round;stroke-linejoin:round;stroke-miterlimit:10;stroke-width:.9px;fill:none" transform="translate(18.372 2.943)"/>
            <path d="M-102.061 0a9.536 9.536 0 0 0-3.459 9.126 9.507 9.507 0 0 0 1.187 3.209" transform="translate(107.951 2.431)" style="stroke:#333a60;stroke-linecap:round;stroke-linejoin:round;stroke-miterlimit:10;stroke-width:.9px;fill:none"/>
            <path d="m-1.586-53.736-.056-1.41a.47.47 0 0 1 .488-.488l1.41.056" transform="translate(19.834 58.478)" style="stroke:#333a60;stroke-linecap:round;stroke-linejoin:round;stroke-miterlimit:10;stroke-width:.9px;fill:none"/>
            <path d="m-64.5 0-.335 1.371a.47.47 0 0 1-.6.335l-1.34-.442" transform="translate(68.696 13.09)" style="stroke:#333a60;stroke-linecap:round;stroke-linejoin:round;stroke-miterlimit:10;stroke-width:.9px;fill:none"/>
        </g>
    </g>
</svg>
