<svg xmlns="http://www.w3.org/2000/svg" width="28" height="28" viewBox="0 0 28 28">
    <path fill="none" d="M0 0h28v28H0z"/>
    <g>
        <path fill="#65ef8a" d="M27.463 16.438a17.285 17.285 0 0 0 7.585 1.6l1.17 1.436a11.716 11.716 0 0 0-.3 6.333 10.566 10.566 0 0 1-.025 5.106c-1.287 4.654-8.009 6.619-8.431 6.823-.422-.206-7.143-2.169-8.431-6.823a10.566 10.566 0 0 1-.025-5.106 11.716 11.716 0 0 0-.3-6.333l1.17-1.436a17.28 17.28 0 0 0 7.587-1.6z" transform="translate(-13.084 -12.729) translate(-.259 -.26)"/>
        <path fill="#49d46e" d="M43.334 21.182l-1.17-1.436h-.119l.155.19a11.716 11.716 0 0 0-.3 6.333 10.567 10.567 0 0 1-.025 5.106c-1.286 4.649-8.968 7.02-9.406 7.231 1.115.5 1.968.771 2.109.84.422-.206 7.143-2.169 8.431-6.823a10.567 10.567 0 0 0 .025-5.106 11.716 11.716 0 0 1 .3-6.333z" transform="translate(-13.084 -12.729) translate(-7.373 -1.97)"/>
        <path fill="#ebf0f3" d="M32.806 29.283l1.211 2.455 2.709.393-1.96 1.911.463 2.7-2.423-1.273-2.423 1.273.463-2.7-1.96-1.911 2.709-.393z" transform="translate(-13.084 -12.729) translate(-5.521 -6.9)"/>
        <path fill="#333a60" stroke="#333a60" stroke-width="0.4px" d="M34.97 36.732a.242.242 0 0 1-.112-.028l-2.311-1.214-2.31 1.21a.242.242 0 0 1-.35-.255l.441-2.573-1.869-1.822a.242.242 0 0 1 .134-.412l2.583-.375 1.155-2.341a.251.251 0 0 1 .435 0l1.155 2.341 2.583.375a.242.242 0 0 1 .134.412l-1.869 1.822.441 2.573a.242.242 0 0 1-.238.282zm-2.423-1.757a.242.242 0 0 1 .112.028l1.99 1.044-.38-2.215a.242.242 0 0 1 .07-.214l1.61-1.569-2.222-.323a.242.242 0 0 1-.182-.132l-1-2.015-.992 2.021a.242.242 0 0 1-.182.132l-2.222.323 1.61 1.569a.242.242 0 0 1 .07.214l-.383 2.214L32.435 35a.242.242 0 0 1 .113-.026z" transform="translate(-13.084 -12.729) translate(-5.263 -6.651)"/>
        <path stroke="#333a60" stroke-width="0.4px" d="M27.2 37.716a.242.242 0 0 1-.106-.025c-.04-.019-.139-.054-.286-.108-5.852-2.12-7.73-4.905-8.271-6.868a10.748 10.748 0 0 1-.029-5.223 11.389 11.389 0 0 0-.29-6.192.242.242 0 0 1 .038-.242l1.17-1.436a.215.215 0 0 1 .189-.089 16.868 16.868 0 0 0 7.46-1.564.242.242 0 0 1 .25 0 16.663 16.663 0 0 0 7.459 1.564.219.219 0 0 1 .189.089l1.171 1.436a.242.242 0 0 1 .038.242 11.387 11.387 0 0 0-.29 6.192 10.75 10.75 0 0 1-.028 5.223c-.543 1.963-2.418 4.747-8.271 6.868-.148.054-.247.088-.286.108a.242.242 0 0 1-.107.025zm-8.477-18.459a12.038 12.038 0 0 1 .261 6.34 10.273 10.273 0 0 0 .022 4.989c.513 1.853 2.312 4.493 7.971 6.543l.228.084c.058-.022.135-.048.228-.084 5.657-2.05 7.456-4.689 7.967-6.543a10.27 10.27 0 0 0 .022-4.989 12.034 12.034 0 0 1 .261-6.34l-1.008-1.239h-.027a17.849 17.849 0 0 1-7.448-1.561 17.746 17.746 0 0 1-7.472 1.562z" transform="translate(-13.084 -12.729)"/>
    </g>
</svg>
