<svg xmlns="http://www.w3.org/2000/svg" id="Training_Institutes" width="28" height="28" viewBox="0 0 28 28">
    <defs>
        <style>
            .cls-2{fill:#e6e9ed}.cls-3{fill:#ffeaa7}.cls-8{fill:#cf9e76}.cls-10{fill:#f0d0b4}.cls-11{fill:#193651}
        </style>
    </defs>
    <path id="Rectangle_91" fill="none" d="M0 0h28v28H0z"/>
    <g id="career" transform="translate(-5 -4.666)">
        <path id="Path_14252" d="M128 16h16.1v10.5H128z" class="cls-2" transform="translate(-114.75 -7.65)"/>
        <path id="Path_14253" d="M162.1 48.7v.7h-1.4a.7.7 0 0 1-.494-1.194.68.68 0 0 1 .494-.206h.7a.7.7 0 0 1 .7.7z" class="cls-3" transform="translate(-145.35 -38.25)"/>
        <path id="Path_14254" d="M417.4 192a.7.7 0 0 1 .494 1.194.68.68 0 0 1-.494.206h-.7a.7.7 0 0 1-.7-.7v-.7z" class="cls-3" transform="translate(-390.15 -175.95)"/>
        <path id="Path_14255" fill="#ecc19c" d="M315.85 51.85H312V48a3.85 3.85 0 0 1 3.85 3.85z" transform="translate(-290.7 -38.25)"/>
        <path id="Path_14256" fill="#b4dd7f" d="M312 136h3.85a3.821 3.821 0 0 1-1.129 2.721z" transform="translate(-290.7 -122.4)"/>
        <path id="Path_14257" fill="#ff826e" d="M227.85 51.85l2.721 2.721a3.848 3.848 0 0 1-5.775-.376l1.628-1.054a.813.813 0 0 0 .376-.687v-.136a.817.817 0 0 0-1.247-.7l-1.492.919a3.6 3.6 0 0 1-.061-.687 3.85 3.85 0 0 1 3.85-3.85z" transform="translate(-206.55 -38.25)"/>
        <path id="Path_14258" d="M339.5 384a3.5 3.5 0 0 1 3.5 3.5v1.4h-7v-1.4a3.5 3.5 0 0 1 3.5-3.5z" class="cls-2" transform="translate(-313.65 -359.55)"/>
        <path id="Path_14259" fill="#4fc1e9" d="M181.25 388.9H176v-1.4a3.5 3.5 0 0 1 7 0v1.4z" transform="translate(-160.65 -359.55)"/>
        <path id="Path_14260" d="M58.1 328v6.3a1.047 1.047 0 0 1-1.05 1.05 1.063 1.063 0 0 1-.744-.306A1.03 1.03 0 0 1 56 334.3V328z" class="cls-8" transform="translate(-45.9 -306)"/>
        <path id="Path_14261" d="M106.1 328v6.3a1.063 1.063 0 0 1-.306.744 1.03 1.03 0 0 1-.744.306 1.047 1.047 0 0 1-1.05-1.05V328z" class="cls-8" transform="translate(-91.8 -306)"/>
        <path id="Path_14262" fill="#fcd770" d="M22.108 133.6a2.1 2.1 0 0 0-.157.792v2.358h-4.2v1.05h-.7A1.047 1.047 0 0 1 16 136.75v-2.45a3.5 3.5 0 0 1 3.413-3.5l-.263 3.146.7.7.7-.7-.262-3.15H21.7a2.13 2.13 0 0 0 1.1-.311l2.354-1.448 1.492-.919a.817.817 0 0 1 1.247.7v.136a.818.818 0 0 1-.376.687l-1.617 1.054-2.988 1.934a2.063 2.063 0 0 0-.8.971z" transform="translate(-7.65 -114.75)"/>
        <path id="Path_14263" d="M89.138 192l.262 3.15-.7.7-.7-.7.263-3.15h.875z" class="cls-2" transform="translate(-76.5 -175.95)"/>
        <g id="Group_15082" transform="translate(10.1 11.85)">
            <circle id="Ellipse_963" cx="2.1" cy="2.1" r="2.1" class="cls-10" transform="translate(13.65 8.4)"/>
            <circle id="Ellipse_964" cx="2.1" cy="2.1" r="2.1" class="cls-10" transform="translate(6.65 8.4)"/>
            <path id="Path_14264" d="M60.2 98.1a2.1 2.1 0 1 1-2.1-2.1 2.029 2.029 0 0 1 1.05.284A2.091 2.091 0 0 1 60.2 98.1z" class="cls-10" transform="translate(-56 -96)"/>
        </g>
        <path id="Path_14265" d="M12.9 8.219V11.6a2.446 2.446 0 0 0-2.2 4.274A3.852 3.852 0 0 0 8 19.55V22a1.4 1.4 0 0 0 1.4 1.4h.35v4.869a1.423 1.423 0 0 0 1.3 1.426 1.381 1.381 0 0 0 1.146-.481 1.394 1.394 0 0 0 1.146.481 1.423 1.423 0 0 0 1.3-1.426v-8.627a1.632 1.632 0 0 1 .057-.442h14.782a.217.217 0 0 0 .219-.219V8.219A.217.217 0 0 0 29.481 8H13.119a.217.217 0 0 0-.219.219zm-2.45 5.731a1.75 1.75 0 1 1 1.75 1.75 1.75 1.75 0 0 1-1.75-1.75zm2.087 5.119l-.337.337-.337-.337.223-2.669h.227zM9.4 22.7a.7.7 0 0 1-.7-.7v-2.45a3.151 3.151 0 0 1 2.677-3.111l-.241 2.892 1.064 1.063 1.063-1.063-.245-2.931h1.037a2.474 2.474 0 0 0 1.286-.363l3.846-2.367a.467.467 0 0 1 .713.411v.127a.468.468 0 0 1-.214.394L15.07 17.59a2.443 2.443 0 0 0-1.12 2.056v2h-3.5V19.2a.351.351 0 0 0-.35-.35.351.351 0 0 0-.35.35v3.5zm8.4-9.1a3.5 3.5 0 0 1 3.15-3.483v3.627l2.564 2.564a3.495 3.495 0 0 1-4.738-.284l1.291-.836a1.164 1.164 0 0 0 .534-.98v-.136a1.166 1.166 0 0 0-1.781-.993l-1.02.621v-.1zm6.208 2.214l-1.864-1.864h2.638a3.488 3.488 0 0 1-.774 1.864zM21.65 13.25v-3.132a3.512 3.512 0 0 1 3.132 3.132zM11.15 29a.7.7 0 0 1-.7-.7v-5.95h1.4v5.95a.7.7 0 0 1-.7.7zm2.1 0a.7.7 0 0 1-.7-.7v-5.95h1.4v5.95a.7.7 0 0 1-.7.7zM29 18.5H15.079a1.786 1.786 0 0 1 .372-.328l2.734-1.772a4.161 4.161 0 0 0 3.115 1.4 4.2 4.2 0 1 0-4.2-4.2 4.025 4.025 0 0 0 .035.512l-2.161 1.33a1.746 1.746 0 0 1-.919.258h-.144a2.443 2.443 0 0 0-.311-3.758V8.7H29v9.8z" class="cls-11"/>
        <path id="Path_14266" d="M180.241 284.452a2.45 2.45 0 1 0-2.783 0 3.854 3.854 0 0 0-2.109 1.991 3.854 3.854 0 0 0-2.109-1.991 2.45 2.45 0 1 0-2.783 0A3.858 3.858 0 0 0 168 288.04v1.531a.217.217 0 0 0 .219.219h14.262a.217.217 0 0 0 .219-.219v-1.531a3.858 3.858 0 0 0-2.459-3.588zm-3.141-2.012a1.75 1.75 0 1 1 1.75 1.75 1.75 1.75 0 0 1-1.75-1.75zm-7 0a1.75 1.75 0 1 1 1.75 1.75 1.75 1.75 0 0 1-1.75-1.75zm4.9 6.65h-1.05v-2.45a.351.351 0 0 0-.35-.35.351.351 0 0 0-.35.35v2.45h-2.8v-2.45a.351.351 0 0 0-.35-.35.351.351 0 0 0-.35.35v2.45h-1.05v-1.011a3.15 3.15 0 1 1 6.3-.039zm7 0h-1.05v-2.45a.351.351 0 0 0-.35-.35.351.351 0 0 0-.35.35v2.45h-2.8l-.009-2.441a.351.351 0 0 0-.35-.35.351.351 0 0 0-.35.35l.009 2.441h-1.05v-1.011a3.15 3.15 0 1 1 6.3-.039z" class="cls-11" transform="translate(-153 -260.09)"/>
        <path id="Path_14267" d="M409.728 184h-1.641a.088.088 0 0 0-.087.087v.963a1.047 1.047 0 0 0 1.05 1.05h.7a1.049 1.049 0 0 0 1.05-1.033 1.07 1.07 0 0 0-1.072-1.067zm.022 1.4h-.7a.351.351 0 0 1-.35-.35v-.35h1.05a.35.35 0 1 1 0 .7z" class="cls-11" transform="translate(-382.5 -168.3)"/>
        <path id="Path_14268" d="M153.069 42.1h1.641a.088.088 0 0 0 .087-.087v-.963a1.047 1.047 0 0 0-1.05-1.05h-.7A1.049 1.049 0 0 0 152 41.033a1.07 1.07 0 0 0 1.069 1.067zm-.022-1.4h.7a.351.351 0 0 1 .35.35v.35h-1.05a.35.35 0 0 1 0-.7z" class="cls-11" transform="translate(-137.698 -30.6)"/>
        <path id="Path_14269" d="M424.35 40h1.4a.351.351 0 0 1 .35.35.351.351 0 0 1-.35.35h-1.4a.351.351 0 0 1-.35-.35.351.351 0 0 1 .35-.35z" class="cls-11" transform="translate(-397.8 -30.6)"/>
        <path id="Path_14270" d="M424.35 72h1.4a.351.351 0 0 1 .35.35.351.351 0 0 1-.35.35h-1.4a.351.351 0 0 1-.35-.35.351.351 0 0 1 .35-.35z" class="cls-11" transform="translate(-397.8 -61.2)"/>
        <path id="Path_14271" d="M424.35 104h1.4a.351.351 0 0 1 .35.35.351.351 0 0 1-.35.35h-1.4a.351.351 0 0 1-.35-.35.351.351 0 0 1 .35-.35z" class="cls-11" transform="translate(-397.8 -91.8)"/>
        <path id="Path_14272" d="M424.35 136h1.4a.351.351 0 0 1 .35.35.351.351 0 0 1-.35.35h-1.4a.351.351 0 0 1-.35-.35.351.351 0 0 1 .35-.35z" class="cls-11" transform="translate(-397.8 -122.4)"/>
    </g>
</svg>
