<svg xmlns="http://www.w3.org/2000/svg" id="Transporters" width="28" height="28" viewBox="0 0 28 28">
    <defs>
        <style>
            .cls-4{fill:#58595b}.cls-5{fill:#ffda44}.cls-7{fill:#a0815c}.cls-8{fill:#ff9811}.cls-9{fill:#193651}
        </style>
    </defs>
    <path id="Rectangle_91" fill="none" d="M0 0h28v28H0z"/>
    <g id="truck" transform="translate(-5.5 -97.2)">
        <g id="Group_15078" transform="translate(8.368 104.368)">
            <g id="Group_15076" transform="translate(0 1.472)">
                <path id="Path_14192" fill="#e0e0e2" d="M348.785 154.305h1.288a.92.92 0 0 0 .92-.92v-4.233l-2.314-4.049-.631-1.1H344v10.305h1.1" transform="translate(-328.91 -144)"/>
                <path id="Path_14193" fill="#787680" d="M31.09 304v2.944H16.92a.92.92 0 0 1-.92-.92V304z" transform="translate(-16 -296.639)"/>
                <circle id="Ellipse_952" cx="1.575" cy="1.575" r="1.575" class="cls-4" transform="translate(16.427 8.657)"/>
                <ellipse id="Ellipse_953" cx="2.075" cy="1.575" class="cls-4" rx="2.075" ry="1.575" transform="translate(1.731 8.657)"/>
                <circle id="Ellipse_954" cx=".525" cy=".525" r=".525" class="cls-5" transform="translate(17.477 9.706)"/>
                <circle id="Ellipse_955" cx=".525" cy=".525" r=".525" class="cls-5" transform="translate(3.132 9.706)"/>
                <ellipse id="Ellipse_956" cx="1.74" cy="1.575" class="cls-4" rx="1.74" ry="1.575" transform="translate(6.98 8.657)"/>
                <circle id="Ellipse_957" cx=".525" cy=".525" r=".525" class="cls-5" transform="translate(8.332 9.706)"/>
                <path id="Path_14194" fill="#78b9eb" d="M379.207 168H376v4.049h5.521" transform="translate(-359.438 -166.896)"/>
                <path id="Path_14195" d="M0 0h1.1a.736.736 0 0 1 0 1.472H0z" class="cls-5" transform="rotate(180 11.041 3.865)"/>
            </g>
            <g id="Group_15077" transform="translate(.736)">
                <path id="Path_14196" d="M224 208h4.417v4.417H224z" class="cls-7" transform="translate(-215.167 -203.583)"/>
                <path id="Path_14197" d="M256 208h1.472v2.208H256z" class="cls-8" transform="translate(-245.695 -203.583)"/>
                <path id="Path_14198" d="M128 208h4.417v4.417H128z" class="cls-7" transform="translate(-123.583 -203.583)"/>
                <path id="Path_14199" d="M160 208h1.472v2.208H160z" class="cls-8" transform="translate(-154.111 -203.583)"/>
                <path id="Path_14200" d="M32 208h4.417v4.417H32z" class="cls-7" transform="translate(-32 -203.583)"/>
                <path id="Path_14201" d="M64 208h1.472v2.208H64z" class="cls-8" transform="translate(-62.528 -203.583)"/>
                <path id="Path_14202" d="M80 112h4.417v4.417H80z" class="cls-7" transform="translate(-77.792 -112)"/>
                <path id="Path_14203" d="M112 112h1.472v2.208H112z" class="cls-8" transform="translate(-108.319 -112)"/>
                <path id="Path_14204" d="M176 112h4.417v4.417H176z" class="cls-7" transform="translate(-169.375 -112)"/>
                <path id="Path_14205" d="M208 112h1.472v2.208H208z" class="cls-8" transform="translate(-199.903 -112)"/>
            </g>
        </g>
        <g id="Group_15079" transform="translate(8 104)">
            <path id="Path_14206" d="M385.1 344a1.1 1.1 0 1 0 1.1 1.1 1.1 1.1 0 0 0-1.1-1.1zm0 1.472a.368.368 0 1 1 .368-.368.368.368 0 0 1-.368.368z" class="cls-9" transform="translate(-366.702 -332.958)"/>
            <path id="Path_14207" d="M73.1 344a1.1 1.1 0 1 0 1.1 1.1 1.1 1.1 0 0 0-1.1-1.1zm0 1.472a.368.368 0 1 1 .368-.368.368.368 0 0 1-.368.368z" class="cls-9" transform="translate(-69.056 -332.958)"/>
            <path id="Path_14208" d="M185.1 344a1.1 1.1 0 1 0 1.1 1.1 1.1 1.1 0 0 0-1.1-1.1zm0 1.472a.368.368 0 1 1 .368-.368.368.368 0 0 1-.368.368z" class="cls-9" transform="translate(-175.903 -332.958)"/>
            <path id="Path_14209" d="M30.771 110.81l-2.944-5.153a.369.369 0 0 0-.32-.185h-4.049a.368.368 0 0 0-.368.368v6.993h-.368v-4.049a.368.368 0 0 0-.368-.368h-1.84v-4.049a.368.368 0 0 0-.368-.368h-8.834a.368.368 0 0 0-.368.368v4.049H9.1a.368.368 0 0 0-.368.368v4.049h-.364A.368.368 0 0 0 8 113.2v2.024a1.29 1.29 0 0 0 1.288 1.288h.583a2.208 2.208 0 0 0 4.354 0h.8a2.208 2.208 0 0 0 4.354 0h4.847a2.208 2.208 0 0 0 4.354 0h.951a1.29 1.29 0 0 0 1.288-1.288v-4.233a.369.369 0 0 0-.048-.181zm-9.889.551a.368.368 0 0 0 .368-.368v-1.84h.736v3.681h-3.681v-3.681h.736v1.84a.368.368 0 0 0 .368.368zm-.368-2.208v1.472h-.736v-1.472zm-2.944-4.417h.736v1.472h-.736zm-1.472 0h.736v1.84a.368.368 0 0 0 .368.368h1.472a.368.368 0 0 0 .368-.368v-1.84h.736v3.68H16.1zm-1.1 6.625h1.472a.368.368 0 0 0 .368-.368v-1.84h.736v3.681h-3.685v-3.681h.736v1.84a.368.368 0 0 0 .368.368zm1.1-2.208v1.472h-.736v-1.472zm-2.944-4.417h.736v1.472h-.736zm-1.472 0h.736v1.84a.368.368 0 0 0 .368.368h1.472a.368.368 0 0 0 .368-.368v-1.84h.736v3.68h-3.681zm-.736 4.417h.736v1.472h-.736zm-1.472 0h.736v1.84a.368.368 0 0 0 .368.368h1.472a.368.368 0 0 0 .368-.368v-1.84h.736v3.681H9.472zm2.576 8.465a1.472 1.472 0 1 1 1.472-1.472 1.472 1.472 0 0 1-1.473 1.472zm5.153 0a1.472 1.472 0 1 1 1.472-1.472 1.472 1.472 0 0 1-1.475 1.472zm5.889-1.84h-3.714a2.208 2.208 0 0 0-4.354 0h-.8a2.208 2.208 0 0 0-4.354 0h-.582a.553.553 0 0 1-.552-.552v-1.656H23.09zm4.834-8.465l1.893 3.312H25.3v-3.312zM26.4 117.618a1.472 1.472 0 1 1 1.472-1.472 1.472 1.472 0 0 1-1.472 1.472zm3.681-4.417h-.736a.368.368 0 1 1 0-.736h.736zm0-1.472h-.736a1.1 1.1 0 1 0 0 2.208h.736v1.288a.553.553 0 0 1-.552.552h-.949a2.208 2.208 0 0 0-4.354 0h-.4v-9.569h3.467l.21.368H24.93a.368.368 0 0 0-.368.368v4.049a.368.368 0 0 0 .368.368h5.153z" class="cls-9" transform="translate(-8 -104)"/>
        </g>
    </g>
</svg>
